<svg width="784" height="189" viewBox="0 0 784 189" fill="none" xmlns="http://www.w3.org/2000/svg">
<path fill-rule="evenodd" clip-rule="evenodd" d="M112.9 27.8L74.5 100.6L109.3 138L147.8 100.4L159.7 30.2L112.9 27.8Z" fill="#6DBCE3"/>
<path fill-rule="evenodd" clip-rule="evenodd" d="M0 21.7L70.2 96.2L107.1 27.4L0 21.7Z" fill="#0093D0"/>
<path fill-rule="evenodd" clip-rule="evenodd" d="M102.5 21.7L43.5 0L52.6 18.5L102.5 21.7Z" fill="#0093D0"/>
<path fill-rule="evenodd" clip-rule="evenodd" d="M158.7 24.3L141.5 0L116.3 22.7L158.7 24.3Z" fill="#B4D8EF"/>
<path fill-rule="evenodd" clip-rule="evenodd" d="M76.8 111.6L58.1 188.2L105.2 142.1L76.8 111.6Z" fill="#0093D0"/>
<path fill-rule="evenodd" clip-rule="evenodd" d="M253.1 0H148.7L165.9 24.2L253.1 0Z" fill="#0093D0"/>
<path fill-rule="evenodd" clip-rule="evenodd" d="M225.6 109.6H216L207.6 162.4C207.4 163.8 206.1 164.9 204.7 164.9H185.6C184.2 164.9 183.3 163.8 183.5 162.4L195.2 88.4C198.2 69.7 207.6 65.5 220.6 65.5C224.6 65.5 228.8 65.9 232.1 66.5C233.6 66.8 234.6 67.6 234.3 69L232.4 80.9C232.2 82.3 230.9 83.3 229.4 83.3H224.1C221 83.3 219.9 84.6 219.3 88.3L218.8 91.7H228.4C229.8 91.7 230.7 92.8 230.5 94.2L228.5 107C228.3 108.5 227 109.6 225.6 109.6ZM273.3 110.5H271.5C266.1 110.5 260.8 111.3 256.6 113.4L248.9 162.2C248.7 163.6 247.5 165 245.9 165H227C225.5 165 224.5 163.6 224.7 162.2L235.4 94.3C235.6 92.9 236.6 91.8 238.3 91.8H256.4C258.2 91.8 258.8 92.4 258.5 94.3L258 97.3C264.6 91.4 269.2 90.8 275.9 90.8C278 90.8 278.3 91.3 278 93.3L275.6 108.6C275.5 110.1 274.9 110.5 273.3 110.5ZM336.4 135.1H297.3V135.4C296.2 142.1 298.4 146.2 307.5 146.2C314.2 146.2 326.6 145.6 331.5 145.2C333.5 145.1 334.2 145.4 333.9 147.3L332.1 158.6C331.8 160.6 331.1 161.5 329 162.1C320.5 164.7 311.7 166 301.1 166C284.1 166 269.8 157.1 273.6 133.1L274.9 124.8C278.4 102.7 293.1 90.6 313.7 90.6C335.7 90.6 343.7 104.6 340.5 124.8L339.3 132.3C339.3 134 337.9 135.1 336.4 135.1ZM318.1 121.4C319.3 113.9 317 109.3 310.7 109.3C304.7 109.3 300.7 113.8 299.5 121.4L299.4 121.8H318L318.1 121.4ZM406 135.1H366.9V135.4C365.8 142.1 368 146.2 377.1 146.2C383.8 146.2 396.2 145.6 401.1 145.2C403.1 145.1 403.8 145.4 403.5 147.3L401.7 158.6C401.4 160.6 400.7 161.5 398.6 162.1C390.1 164.7 381.3 166 370.7 166C353.7 166 339.4 157.1 343.2 133.1L344.5 124.8C348 102.7 362.7 90.6 383.4 90.6C405.4 90.6 413.4 104.6 410.2 124.8L409 132.3C408.8 134 407.5 135.1 406 135.1ZM387.7 121.4C388.9 113.9 386.6 109.3 380.3 109.3C374.3 109.3 370.3 113.8 369.1 121.4L369 121.8H387.6L387.7 121.4ZM431.5 164.9H412.5C411.1 164.9 410 163.5 410.2 162.1L424.8 70.2C425 68.8 426.6 67.7 428 67.7H447C448.4 67.7 449.3 68.8 449.1 70.2L434.5 162.1C434.3 163.5 432.9 164.9 431.5 164.9ZM498.3 164.9H480.8C479.4 164.9 478.5 163.8 478.7 162.4L479.1 159.8C473.8 163.3 467 166.1 460.1 166.1C450.2 166.1 439.5 160.6 442.2 143.6L442.4 142.1C444.8 127 457.1 121.6 478.1 121.6H483.5L484.1 118C485.1 111.8 483.2 110.7 477 110.7C470 110.7 458.5 111.3 455 111.6C452.8 111.7 452.4 110.6 452.6 109.1L454.5 96.9C454.8 95 455.9 94.4 457.5 93.9C461.8 92.6 472.9 90.9 481 90.9C499.2 90.9 511.5 97.4 508.3 118.1L501.3 162.6C501 163.8 499.7 164.9 498.3 164.9ZM482.3 134.6H476.1C469.8 134.6 467 136.6 466.1 141.9L465.9 143.2C465.2 147.5 467.9 148.7 471.4 148.7C474.4 148.7 478 147.8 480.2 146.8L482.3 134.6ZM570.9 164.9H552C550.5 164.9 549.5 163.5 549.7 162.1L556.4 119.5C557.5 112.8 555.7 110.7 550 110.7C547.1 110.7 543.3 111.8 540.2 113.3L532.5 162.1C532.3 163.5 531.1 164.9 529.5 164.9H510.6C509.1 164.9 508.1 163.5 508.3 162.1L519 94.2C519.2 92.8 520.5 91.7 521.9 91.7H539.4C540.8 91.7 541.7 92.8 541.5 94.2L541 97.1C548.5 92.1 555.7 90.7 562.8 90.7C582.5 90.7 582.9 104.5 580.5 119.5L573.8 162.1C573.6 163.5 572.4 164.9 570.9 164.9ZM626.7 164C622.3 165 616.6 166 609.2 166C590 166 581.1 153.7 584.4 133.1L585.9 123.7C589.1 103.2 601.9 90.6 621.2 90.6C628.6 90.6 634.7 91.7 638.1 92.6C639.7 93 640.5 93.6 640.2 95.2L638 109.4C637.8 110.9 636.8 112 635 111.8C630.8 111.4 626.8 110.9 620.7 110.9C615.3 110.9 611.6 114.3 610.1 123.6L608.6 133C607.1 142.3 609.8 145.6 615.2 145.6C621.4 145.6 625.4 145.4 629.8 144.8C631.7 144.6 632.3 145.6 632.1 147.2L629.9 161.3C629.4 163 628.4 163.7 626.7 164ZM700.5 135.1H661.4V135.4C660.3 142.1 662.5 146.2 671.6 146.2C678.3 146.2 690.7 145.6 695.6 145.2C697.6 145.1 698.3 145.4 698 147.3L696.2 158.6C695.9 160.6 695.2 161.5 693.1 162.1C684.6 164.7 675.8 166 665.2 166C648.2 166 633.9 157.1 637.7 133.1L639 124.8C642.5 102.7 657.2 90.6 677.8 90.6C699.8 90.6 707.8 104.6 704.6 124.8L703.4 132.3C703.3 134 702 135.1 700.5 135.1ZM682.1 121.4C683.3 113.9 681 109.3 674.7 109.3C668.7 109.3 664.7 113.8 663.5 121.4L663.4 121.8H682L682.1 121.4ZM740 91.8L728.8 162.2C728.6 163.6 727.4 165 725.8 165H707C705.5 165 704.5 163.6 704.7 162.2L712.1 115.6L740 91.8Z" fill="#3C3F47"/>
<path fill-rule="evenodd" clip-rule="evenodd" d="M784 91.8H746.4L742.5 115.9L784 91.8Z" fill="#0093D0"/>
</svg>
