<?xml version="1.0" encoding="UTF-8"?>
<svg id="Layer_1" data-name="Layer 1" xmlns="http://www.w3.org/2000/svg" viewBox="0 0 8028.84 1687.75">
  <defs>
    <style>
      .cls-1, .cls-2 {
        fill: #fff;
      }

      .cls-2, .cls-3, .cls-4, .cls-5, .cls-6 {
        fill-rule: evenodd;
      }

      .cls-3 {
        fill: #0e4e96;
      }

      .cls-4 {
        fill: #fff200;
      }

      .cls-5 {
        fill: #ed1c29;
      }

      .cls-6 {
        fill: #ffcb05;
      }

      .cls-7 {
        fill: #034ea2;
      }
    </style>
  </defs>
  <polygon class="cls-4" points="709.34 272.09 721.19 237.67 732.29 272.09 768.98 272.09 739.82 293.16 751.29 328.91 721.19 306.72 691.65 328.54 703.32 293.54 674.53 272.09 709.34 272.09"/>
  <path class="cls-3" d="m114.77,0h1458.22c63.12,0,114.77,51.65,114.77,114.76v1458.22c0,63.12-51.65,114.76-114.77,114.76H114.77c-63.12,0-114.77-51.65-114.77-114.76V114.76C0,51.65,51.65,0,114.77,0"/>
  <path class="cls-6" d="m119.49,24.11h1448.76c52.47,0,95.39,42.92,95.39,95.39v1448.76c0,52.47-42.92,95.39-95.39,95.39H119.49c-52.47,0-95.39-42.92-95.39-95.39V119.49c0-52.47,42.93-95.39,95.39-95.39"/>
  <path class="cls-7" d="m1443.06,1201.71v-81.42h18.72v81.42h-18.72Zm-41.56,7.85h17.49v12.01h-17.49v-12.01Zm3.15-28.44c0,2.44.41,4.33,1.23,5.69.82,1.19,2.21,1.76,4.16,1.76,2.24,0,3.8-.96,4.68-2.86.49-1.43.71-2.95.71-4.59v-40.36c0-1.96-.2-3.53-.62-4.71-.81-1.81-2.4-2.73-4.77-2.73-2.24,0-3.79.88-4.68,2.64-.47,1.42-.71,3.02-.71,4.8v40.36h0Zm-9.67-65.83l8.43-13.86h14.36l7.32,13.86h-10.58l-4.47-7.76-5.08,7.76h-9.98,0Zm-9.04,27.11c0-7.68,2.27-13.59,6.79-17.75,4.27-3.86,10.02-5.79,17.3-5.79s13.02,1.96,17.48,5.92c4.5,3.99,6.73,9.88,6.73,17.62v37.1c0,7.13-2.17,12.84-6.52,17.12-4.35,4.27-10.25,6.42-17.68,6.42s-13.16-2.1-17.48-6.32c-4.41-4.2-6.62-9.94-6.62-17.22v-37.1h0Zm-62.13,59.31v-81.42h20.43l15.03,48.02.22-48.02h18.09v81.42h-20.33l-15.17-50.32-.19,50.32h-18.09Zm-62.82-28.94h9.35l-4.37-39.97-4.98,39.97h0Zm7.22-71.34l4.48,13.86h-9.48l-11.06-13.86h16.06,0Zm-14.73,18.74h24.78l15.37,81.54h-19.74l-1.71-14.47h-13.14l-1.92,14.47h-18.69l15.05-81.54Zm-68.1,81.54v-81.42h18.71v30.48h10.76v-30.48h18.7v81.42h-18.7v-34.65h-10.76v34.65h-18.71Zm-81.95,0v-81.42h20.03c10.79,0,18.17,1.46,22.18,4.38,4.53,3.4,6.79,10.19,6.79,20.38,0,2.81-.03,4.69-.1,5.72-.14,1.08-.4,2.65-.82,4.67-.4,2.11-1.27,4.17-2.64,6.22-3.18,5.19-8.59,7.76-16.16,7.76h-10.58v32.3h-18.7Zm18.7-66.96v20.19h4.66c2.71,0,4.57-.71,5.59-2.13.89-1.63,1.34-4.35,1.34-8.16,0-4.48-.78-7.37-2.36-8.66-1.01-.81-3.37-1.23-7.1-1.23h-2.13Zm-57.73,74.81h17.48v12.01h-17.48v-12.01Zm-5.59-94.27l8.44-13.86h14.31l7.31,13.86h-10.57l-4.45-7.76-5.08,7.76h-9.96,0Zm-6.2,4.89h41.57v15.69h-22.88v16.3h20.03v15.69h-20.03v18.13h23.79v15.69h-42.5v-81.53h0Zm-27.66,81.54v-81.42h18.7v81.42h-18.7Zm-57.12,0v-81.42h18.7v30.48h10.77v-30.48h18.71v81.42h-18.71v-34.65h-10.77v34.65h-18.7Zm-56.51-22.21v-37c0-7.67,2.27-13.59,6.78-17.72,4.29-3.88,10.06-5.81,17.32-5.81s12.78,1.39,16.78,4.17c4.85,3.4,7.31,8.67,7.31,15.8v9.05h-17.78v-8.13c0-4.28-1.96-6.42-5.92-6.42-1.98,0-3.56.92-4.77,2.73-.67,1.49-1.02,3.07-1.02,4.71v40.26c0,2.44.41,4.33,1.23,5.69.81,1.19,2.21,1.76,4.17,1.76,3.99,0,5.99-2.05,5.99-6.12v-10.51h-6.61v-15.08h24.71v44.84h-16.35v-6.62c-3.47,5.3-8.36,7.95-14.66,7.95s-10.58-2.37-13.62-7.12c-2.38-3.94-3.56-9.42-3.56-16.42h0Zm-62.13,22.21v-81.42h20.43l15.04,48.02.22-48.02h18.1v81.42h-20.34l-15.17-50.32-.19,50.32h-18.09,0Zm-81.95-22.21v-37c0-7.67,2.28-13.59,6.79-17.72,4.29-3.88,10.05-5.81,17.31-5.81s12.79,1.39,16.77,4.17c4.86,3.39,7.31,8.67,7.31,15.8v9.05h-17.79v-8.13c0-4.28-1.96-6.42-5.91-6.42-1.98,0-3.56.92-4.77,2.73-.68,1.49-1.02,3.07-1.02,4.71v40.26c0,2.44.41,4.33,1.23,5.69.82,1.19,2.21,1.76,4.17,1.76,3.99,0,6-2.05,6-6.12v-10.51h-6.62v-15.08h24.71v44.84h-16.35v-6.62c-3.47,5.3-8.36,7.95-14.66,7.95s-10.57-2.37-13.63-7.12c-2.37-3.94-3.56-9.42-3.56-16.42h0Zm-62.13,22.21v-81.42h20.43l15.03,48.02.22-48.02h18.1v81.42h-20.34l-15.16-50.32-.19,50.32h-18.09Zm-37.81-20.59c0,2.44.4,4.33,1.22,5.69.81,1.19,2.21,1.76,4.16,1.76,2.24,0,3.8-.96,4.68-2.86.48-1.43.71-2.95.71-4.59v-40.36c0-1.96-.2-3.53-.63-4.71-.81-1.81-2.38-2.73-4.76-2.73-2.24,0-3.79.88-4.68,2.64-.46,1.42-.7,3.02-.7,4.8v40.36h0Zm-9.68-65.83l8.44-13.86h14.35l7.32,13.86h-10.58l-4.48-7.76-5.08,7.76h-9.98,0Zm-9.04,27.11c0-7.68,2.26-13.59,6.79-17.75,4.27-3.86,10.03-5.79,17.3-5.79s13.02,1.96,17.48,5.92c4.5,3.99,6.73,9.88,6.73,17.62v37.1c0,7.13-2.17,12.84-6.54,17.12-4.34,4.28-10.23,6.42-17.67,6.42s-13.16-2.1-17.48-6.32c-4.42-4.2-6.62-9.94-6.62-17.22v-37.1h0Zm-56.51,37.1v-37c0-7.67,2.27-13.59,6.79-17.72,4.29-3.88,10.05-5.81,17.31-5.81s13.02,2,17.48,6.01c4.4,4.01,6.61,9.85,6.61,17.51v7.55h-18.7v-9.16c0-1.96-.2-3.53-.63-4.71-.82-1.81-2.39-2.73-4.76-2.73-2.24,0-3.79.88-4.69,2.63-.46,1.44-.7,3.03-.7,4.81v40.26c0,2.44.41,4.33,1.22,5.69.83,1.19,2.21,1.76,4.17,1.76,2.23,0,3.8-.96,4.68-2.86.48-1.43.71-2.95.71-4.59v-11.94h18.7v10.31c0,7.19-2.17,12.9-6.5,17.12-4.34,4.28-10.2,6.42-17.58,6.42s-13.16-2.1-17.5-6.32c-4.4-4.2-6.61-9.94-6.61-17.22h0Zm-81.93,0v-37c0-7.67,2.26-13.59,6.79-17.72,4.29-3.88,10.05-5.81,17.31-5.81s13.02,2,17.47,6.01c4.4,4.01,6.6,9.85,6.6,17.51v7.55h-18.69v-9.16c0-1.96-.19-3.53-.63-4.71-.81-1.81-2.38-2.73-4.76-2.73-2.24,0-3.79.88-4.68,2.63-.46,1.44-.7,3.03-.7,4.81v40.26c0,2.44.4,4.33,1.22,5.69.8,1.19,2.21,1.76,4.16,1.76,2.23,0,3.8-.96,4.68-2.86.47-1.43.71-2.95.71-4.59v-11.94h18.69v10.31c0,7.19-2.17,12.9-6.5,17.12-4.34,4.28-10.2,6.42-17.57,6.42s-13.17-2.1-17.51-6.32c-4.41-4.2-6.61-9.94-6.61-17.22h0Zm-40.95,30.07h17.49v12.01h-17.49v-12.01Zm-15.55-67.17c0-7.68,2.26-13.59,6.79-17.75,4.27-3.86,10.03-5.79,17.31-5.79s13.02,1.96,17.47,5.92c4.49,3.99,6.72,9.88,6.72,17.62v37.1c0,7.13-2.17,12.84-6.52,17.12-4.34,4.28-10.23,6.42-17.67,6.42s-13.18-2.1-17.49-6.32c-4.4-4.2-6.6-9.94-6.6-17.22v-37.1h0Zm18.69,38.73c0,2.44.41,4.33,1.23,5.69.81,1.19,2.21,1.76,4.17,1.76,2.23,0,3.79-.96,4.68-2.86.47-1.43.71-2.95.71-4.59v-40.36c0-1.96-.21-3.53-.62-4.71-.81-1.81-2.41-2.73-4.77-2.73-2.24,0-3.79.88-4.7,2.64-.45,1.42-.7,3.02-.7,4.8v40.36h0Zm-75.21,20.59v-81.42h18.7v30.48h10.78v-30.48h18.7v81.42h-18.7v-34.65h-10.78v34.65h-18.7,0Zm-53.07,0v-81.42h18.7v81.42h-18.7Zm-42.28,7.85h17.48v12.02h-17.48v-12.02Zm4.27-36.79h9.38l-4.37-39.95-5,39.95Zm-7.52-52.59h24.81l15.37,81.54h-19.74l-1.72-14.48h-13.13l-1.96,14.48h-18.69l15.05-81.54Zm-49.4,31.59h5.69v12.64h-5.69v23.45h3.36c2.23,0,4.03-.59,5.38-1.76,1.36-1.07,2.03-2.49,2.03-4.26v-40.85c0-4.64-2.61-6.95-7.84-6.95h-2.94v17.73Zm-18.7,12.64h-3.87v-12.64h3.87v-31.59h27.84c7.47,0,12.86,2.08,16.18,6.21,2.85,3.47,4.27,8.69,4.27,15.62v38.81c0,6.92-2.17,12.27-6.53,15.98-3.8,3.28-8.44,4.9-13.93,4.9h-27.84v-37.3h0Zm924.58,394.54v-106.09h28.11v39.21h36.62v-39.21h28.11v106.09h-28.11v-42.22h-36.62v42.22h-28.11Zm141.45-16.16h6.48c2.35,0,4.11-.54,5.28-1.62,1.18-1.07,1.76-2.69,1.76-4.85v-3.87c0-2.21-.59-3.85-1.76-4.93-1.18-1.08-2.94-1.61-5.28-1.61h-6.48c-2.41,0-4.21.55-5.43,1.66-1.23,1.11-1.84,2.72-1.84,4.88v3.87c0,2.17.61,3.78,1.84,4.85,1.22,1.09,3.02,1.62,5.43,1.62h0Zm-27.76-40.28c.09-7.05,2.07-12.13,5.91-15.18,3.86-3.05,10.28-4.6,19.23-4.6h11.21c10.43,0,17.84,1.86,22.21,5.57,4.35,3.7,6.54,9.96,6.54,18.77v51.97h-23.67v-7.84c-1.97,2.62-4.33,4.6-7.05,5.87-2.73,1.28-5.89,1.9-9.51,1.9h-8.54c-6.33,0-11.24-1.78-14.65-5.37-3.43-3.56-5.15-8.69-5.15-15.3v-6.9c0-6.4,1.95-11.33,5.85-14.77,3.91-3.43,9.49-5.15,16.71-5.15h6.49c3.39,0,6.45.58,9.17,1.74,2.72,1.15,4.96,2.84,6.69,5.05v-14.54c0-2.26-.51-3.89-1.51-4.91-1.02-.98-2.68-1.48-4.96-1.48h-4.02c-2.89,0-4.84.39-5.87,1.15-1.03.75-1.54,2.12-1.54,4.12l-23.53-.08.02-.02Zm83.5-49.63h27.97v61.09c0,8.51,1.06,14,3.2,16.55,2.14,2.53,6.5,3.79,13.11,3.79h5.15c6.55,0,10.88-1.24,12.99-3.73,2.12-2.49,3.18-8.02,3.18-16.62v-61.09h27.96v63.28c0,9.39-.58,16.29-1.72,20.71-1.15,4.39-3.1,8.24-5.86,11.45-3.3,3.83-7.4,6.54-12.3,8.17-4.9,1.66-11.53,2.47-19.89,2.47h-13.84c-8.36,0-14.99-.81-19.89-2.47-4.91-1.64-8.99-4.35-12.23-8.17-2.81-3.26-4.81-7.15-6.01-11.64-1.19-4.47-1.8-11.32-1.8-20.51v-63.28h-.02Zm114.26,106.09v-106.09h28.4v106.09h-28.4Zm-678.52-1010.37c5.07,29.57,19.02,66.6,40.64,104.05,21.63,37.46,46.72,68.04,69.78,87.23,21.37,17.76,40.24,25.47,51.53,18.94,11.31-6.53,14.06-26.72,9.37-54.1-5.08-29.57-19.02-66.59-40.65-104.05-21.63-37.45-46.72-68.04-69.78-87.21-21.36-17.76-40.24-25.48-51.54-18.96-11.3,6.53-14.05,26.73-9.35,54.11h0Zm28.65,110.97c-22.42-38.85-36.94-77.51-42.28-108.6-5.71-33.28-.8-58.74,16.06-68.47s41.37-1.26,67.33,20.33c24.26,20.16,50.48,52.06,72.92,90.91,22.43,38.85,36.94,77.51,42.28,108.6,5.71,33.28.8,58.74-16.06,68.47-16.87,9.74-41.37,1.26-67.33-20.32-24.26-20.17-50.48-52.06-72.92-90.91h0Zm31.97,79.79c23.06-19.18,48.16-49.77,69.78-87.22,21.62-37.46,35.57-74.47,40.64-104.04,4.7-27.38,1.95-47.59-9.36-54.11-11.3-6.53-30.17,1.19-51.53,18.95-23.07,19.18-48.16,49.76-69.78,87.23-21.63,37.45-35.57,74.47-40.65,104.04-4.69,27.38-1.94,47.58,9.36,54.11,11.31,6.53,30.17-1.19,51.54-18.96Zm81.78-80.29c-22.43,38.85-48.66,70.75-72.92,90.92-25.97,21.58-50.46,30.07-67.33,20.33s-21.77-35.19-16.06-68.47c5.33-31.09,19.85-69.76,42.28-108.6,22.43-38.84,48.65-70.75,72.92-90.91,25.97-21.59,50.47-30.07,67.33-20.33,16.87,9.74,21.77,35.19,16.06,68.47-5.33,31.09-19.85,69.76-42.27,108.6h0Zm53.41-68.08c-28.14-10.39-67.18-16.83-110.42-16.83s-82.29,6.43-110.43,16.83c-26.06,9.62-42.18,22.1-42.18,35.15s16.12,25.55,42.18,35.17c28.14,10.39,67.18,16.82,110.43,16.82s82.28-6.42,110.42-16.82c26.06-9.62,42.18-22.11,42.18-35.17s-16.12-25.53-42.18-35.15Zm-110.42-30.68c44.85,0,85.59,6.76,115.19,17.69,31.68,11.7,51.27,28.67,51.27,48.14s-19.6,36.46-51.27,48.15c-29.6,10.92-70.33,17.68-115.19,17.68s-85.6-6.76-115.2-17.68c-31.67-11.7-51.26-28.68-51.26-48.15s19.6-36.44,51.26-48.14c29.59-10.93,70.33-17.69,115.2-17.69h0Z"/>
  <path class="cls-5" d="m881.2,270.52c92.36,2,176.06,39.18,238.23,98.67l24.48-24.48c-68.44-65.75-160.8-106.81-262.72-108.83v34.64h0Zm278.15,69.91l-44.08,44.08c60.19,60.19,98.06,142.71,100.13,234.07h62.35c-2.07-108.57-46.92-206.67-118.4-278.15h0Zm38.82,286.03h96.98c0,113.64-44.96,216.8-118.04,292.64l-68.58-68.58c55.54-58.28,89.64-137.19,89.64-224.06h0Zm-316.97,439.07c56.32-1.01,110.27-12.75,159.88-33.31,54.05-22.39,102.46-54.98,142.74-95.26l-93.05-93.05c-28.53,28.53-62.39,51.45-99.69,66.9-33.79,13.99-70.85,22.1-109.9,23.08v131.63h0Zm-655.11,176.39h1223.72c4.61,0,8.73-.02,11.85-.02v1.48c-2.95.41-7.05.92-12.52,1.56-490.6,57.58-905.3,153.96-1223.06,309.63v-312.67h0Zm647.23-321.76v159.31c-122.25,0-233.19-48.44-314.69-127.16l112.67-112.68c52.64,49.9,123.76,80.52,202.02,80.52h0Zm-466.79-285.79c2.09,125.77,53.91,239.45,136.67,322.22h0l132.22-132.23c-48.9-48.9-79.79-115.85-81.84-189.99h-187.06,0Zm114.64-360.04c90.13-90.13,214.64-145.88,352.15-145.88v249.37c-68.69,0-130.85,27.84-175.83,72.83l-176.31-176.31h0Zm241.79,263.96c-4.88-8.45-1.98-19.26,6.46-24.13,8.45-4.88,19.26-1.99,24.14,6.46,4.88,8.45,1.99,19.26-6.46,24.14-8.45,4.88-19.26,1.98-24.14-6.47h0Zm88.38,227.37c-4.64,8.01-14.88,10.76-22.89,6.14-8-4.63-10.76-14.87-6.14-22.89,4.64-8.01,14.88-10.76,22.89-6.14,8,4.63,10.76,14.87,6.14,22.88h0Zm153.8-190.36c9.32,0,16.87,7.55,16.87,16.88s-7.55,16.87-16.87,16.87-16.88-7.55-16.88-16.87,7.55-16.88,16.88-16.88Zm-325.4-131.24c-44.88,47.62-72.4,111.8-72.4,182.43h-214.74c0-129.9,51.53-247.77,135.29-334.29l151.85,151.85h0Z"/>
  <polygon class="cls-4" points="714.78 267 728.39 227.47 741.13 267 783.25 267 749.77 291.19 762.93 332.22 728.39 306.73 694.48 331.78 707.87 291.61 674.82 267 714.78 267"/>
  <polygon class="cls-4" points="714.78 267 728.39 227.47 741.13 267 783.25 267 749.77 291.19 762.93 332.22 728.39 306.73 694.48 331.78 707.87 291.61 674.82 267 714.78 267"/>
  <path class="cls-2" d="m7571.16,1220.5v-91.79l-79.8-126.32h51.63l51.38,86.31,50.31-86.31h50.77l-80.12,126.62v91.49h-44.18,0Zm-233.09-125.81h32.44c20.67,0,33.66-.91,38.99-2.69s9.54-4.88,12.65-9.25c1.27-1.97,2.38-4.41,3.4-7.31.35-1.36.66-2.73.86-4.07.21-1.36.3-3.04.3-5.02,0-6.96-1.82-12.65-5.53-17.07-3.71-4.41-9.34-7.51-16.86-9.28-5.12-.51-15.78-.76-32.03-.76h-34.22v55.43h0Zm-44.16,125.81v-218.11h92.6c23.21,0,40.06,1.98,50.68,5.89,10.61,3.91,19.09,11.01,25.43,21.28,6.34,10.25,9.5,21.57,9.5,33.96,0,16.51-4.78,30.01-14.36,40.62-9.55,10.61-23.97,17.31-43.22,20.1,9.25,5.33,17.01,11.33,23.36,17.97,3.1,3.3,6.64,7.82,10.71,13.55,1.98,2.79,4.27,6.09,6.75,9.95,2.54,3.91,5.19,7.97,7.82,12.24l26.76,42.54h-52.59l-31.79-47.47c-11.12-16.96-18.73-27.52-22.79-31.68-4.11-4.21-8.63-7.21-13.46-9.09-4.88-1.88-12.28-2.85-22.28-2.85h-8.94v91.08h-44.17Zm-137.34,0v-181.25h-64.58v-36.86h173.32v36.86h-64.58v181.25h-44.16Zm-263.21-70.98l42.86-4.11c2.53,14.15,7.76,24.67,15.64,31.42,7.87,6.75,18.48,10.16,31.88,10.16s24.17-3,31.63-8.94c7.42-5.94,11.12-12.94,11.12-21.07,0-4.97-1.48-9.19-4.37-12.64-2.94-3.46-8.27-6.81-15.99-9.95l-35.18-9.49c-23.46-5.85-40.01-13.06-49.61-21.58-13.35-11.88-20.06-26.5-20.06-43.82,0-11.21,3.1-21.48,9.24-30.92,6.15-9.39,15.18-16.75,27.22-22.13,6.04-2.58,12.85-4.52,20.42-5.79,7.61-1.27,15.18-1.92,22.69-1.92,27.37,0,47.93,6.04,61.74,18.07,6.79,5.93,12.18,13,16.04,21.07,3.85,8.08,5.78,17.11,5.78,27.01l-44.01,1.93c-1.78-11.22-5.84-19.25-12.18-24.16-6.34-4.93-15.64-7.36-27.82-7.36-12.9,0-22.95,2.64-30.06,7.87-4.68,3.26-7.01,7.77-7.01,13.51,0,5.08,2.33,9.55,7.01,13.46,4.67,3.91,17.92,8.64,39.85,14.16,11.12,2.39,20.55,4.92,28.43,7.57,7.82,2.69,14.27,5.43,19.3,8.32,9.95,5.34,17.88,12.64,23.82,21.89,5.93,9.29,8.93,20.87,8.93,34.82,0,12.09-3.39,23.51-10.21,34.33-6.75,10.76-16.64,19.14-29.64,25.09-6.34,2.58-13.71,4.52-22.04,5.89-8.33,1.32-16.81,1.97-25.43,1.97-27.72,0-48.79-6.3-63.21-18.94-14.37-12.58-23.31-31.17-26.76-55.7h0Zm-209.02-147.14h44.16v117.99c0,19.9.55,32.09,1.63,36.39,1.78,8.52,6.24,15.58,13.46,21.22,7.15,5.58,16.8,8.39,28.99,8.39s21.63-2.49,27.82-7.43c6.14-4.96,10-11.42,11.48-19.39,1.48-8.02,2.24-20.21,2.24-36.66v-120.53h44.16v114.55c0,25.79-1.16,44.07-3.55,54.94-2.38,10.87-6.75,20.11-13.04,27.67-6.3,7.62-14.88,13.61-25.74,18.03-10.85,4.42-24.88,6.6-42.03,6.6-20.4,0-36.1-2.39-47.01-7.15-10.92-4.73-19.34-10.82-25.39-18.24-5.99-7.36-10.25-15.63-12.85-24.72-2.89-13.2-4.31-31.63-4.31-55.34v-116.32h-.02Zm-175.82,36.86v144.7h32.85l15.89-.3h5.53l5.18-1.37c6.76-1.78,12.49-4.72,17.21-8.78,4.68-4.11,8.65-11.16,11.79-21.22,3.2-10.1,4.76-23.55,4.76-40.36s-1.42-29.55-4.21-38.33c-2.85-8.84-6.95-15.89-12.34-21.22-5.42-5.33-12.33-9.04-20.76-11.03-6.76-1.36-18.79-2.08-36.15-2.08h-19.75Zm-44.17-36.86h80.46c18.73,0,32.54,1.37,41.49,4.16,12.18,3.6,23.15,10.31,32.86,20.1,8.82,9.24,15.69,21.07,20.6,35.49,4.93,14.37,7.37,31.58,7.37,51.54,0,17.87-2.25,33.35-6.7,46.51-5.33,15.79-13.15,28.64-23.36,38.58-7.61,7.42-17.92,13.26-30.92,17.42l-7.42,1.93-9.09,1.48-10.4.91h-94.89v-218.11h0Zm-219.39,218.1v-218.11h42.91l89.31,145.61v-145.61h40.82v218.11h-44.22l-87.98-142.21v142.21h-40.84Zm-86.46,0v-218.11h44.18v218.11h-44.18Zm-269.18,0v-218.11h149.42v36.86h-105.25v51.78h90.83v36.87h-90.83v92.6h-44.16Zm-200.7-109.2c0,24.63,5.64,43.31,16.97,56,11.31,12.74,25.84,19.1,43.56,19.1s31.57-6.3,43-18.85c5.49-6.03,9.7-13.91,12.64-23.61,3-9.7,4.48-20.76,4.48-33.25,0-24.52-5.49-43-16.45-55.49-10.97-12.44-25.49-18.69-43.67-18.69s-32.4,6.3-43.61,18.85c-11.28,12.58-16.91,31.22-16.91,55.95h0Zm-45.39,1.48c0-22.19,3.3-40.82,9.95-55.89,4.97-11.12,11.73-21.08,20.31-29.91,8.57-8.78,17.96-15.33,28.17-19.6,14.17-5.73,29.79-8.63,46.96-8.63,31.73,0,57.33,10,76.82,30.06,19.45,20,29.19,47.67,29.19,82.96s-9.54,62.7-28.64,82.61c-19.04,19.85-44.68,29.79-76.77,29.79s-58.07-10-77.22-29.95c-19.19-20.01-28.79-47.12-28.79-81.44h0Zm-221.41,107.74v-91.79l-79.8-126.32h51.63l51.37,86.31,50.32-86.31h50.77l-80.13,126.62v91.49h-44.16Zm-194.61,0v-181.25h-64.58v-36.86h173.33v36.86h-64.58v181.25h-44.16Zm-134.89,0v-218.11h44.16v218.11h-44.16Zm-212.94-70.98l42.86-4.11c2.53,14.15,7.76,24.67,15.64,31.42,7.87,6.75,18.48,10.16,31.88,10.16s24.16-3,31.63-8.94c7.43-5.94,11.12-12.94,11.12-21.07,0-4.97-1.48-9.19-4.37-12.64-2.94-3.46-8.27-6.81-15.99-9.95l-35.18-9.49c-23.46-5.85-40.01-13.06-49.6-21.58-13.36-11.88-20.06-26.5-20.06-43.82,0-11.21,3.09-21.48,9.24-30.92,6.14-9.39,15.18-16.75,27.22-22.13,6.03-2.58,12.84-4.52,20.4-5.79,7.61-1.27,15.18-1.92,22.69-1.92,27.37,0,47.94,6.04,61.74,18.07,6.81,5.93,12.18,13,16.04,21.07,3.86,8.08,5.79,17.11,5.79,27.01l-44.03,1.93c-1.77-11.22-5.84-19.25-12.18-24.16-6.34-4.93-15.64-7.36-27.82-7.36-12.9,0-22.94,2.64-30.06,7.87-4.68,3.26-7.01,7.77-7.01,13.51,0,5.08,2.33,9.55,7.01,13.46,4.67,3.91,17.92,8.64,39.85,14.16,11.12,2.39,20.57,4.92,28.44,7.57,7.82,2.69,14.27,5.43,19.28,8.32,9.95,5.34,17.88,12.64,23.82,21.89,5.94,9.29,8.94,20.87,8.94,34.82,0,12.09-3.4,23.51-10.21,34.33-6.76,10.76-16.65,19.14-29.65,25.09-6.34,2.58-13.71,4.52-22.04,5.89-8.32,1.32-16.81,1.97-25.43,1.97-27.72,0-48.79-6.3-63.21-18.94-14.37-12.58-23.31-31.17-26.76-55.7h.02Zm-164.55-54.84h32.44c20.67,0,33.66-.91,38.99-2.69s9.54-4.88,12.65-9.25c1.27-1.97,2.38-4.41,3.4-7.31.35-1.36.66-2.73.86-4.07.21-1.36.3-3.04.3-5.02,0-6.96-1.82-12.65-5.53-17.07-3.71-4.41-9.34-7.51-16.86-9.28-5.12-.51-15.78-.76-32.03-.76h-34.22v55.43h0Zm-44.16,125.81v-218.11h92.6c23.22,0,40.06,1.98,50.68,5.89,10.61,3.91,19.09,11.01,25.43,21.28,6.34,10.25,9.5,21.57,9.5,33.96,0,16.51-4.78,30.01-14.36,40.62-9.55,10.61-23.97,17.31-43.22,20.1,9.25,5.33,17.01,11.33,23.36,17.97,3.1,3.3,6.64,7.82,10.71,13.55,1.98,2.79,4.27,6.09,6.75,9.95,2.54,3.91,5.19,7.97,7.82,12.24l26.76,42.54h-52.6l-31.79-47.47c-11.12-16.96-18.73-27.52-22.79-31.68-4.11-4.21-8.63-7.21-13.46-9.09-4.88-1.88-12.28-2.85-22.28-2.85h-8.94v91.08h-44.16Zm-203.18,0v-218.11h161.6v36.86h-117.43v48.44h109.26v36.85h-109.26v59.1h121.6v36.86h-165.77,0Zm-147.65,0l-77.94-218.11h47.77l55.14,161.45,53.41-161.45h46.7l-78.09,218.11h-47.01.02Zm-141.7,0v-218.11h44.16v218.11h-44.16Zm-218.16,0v-218.11h42.9l89.31,145.61v-145.61h40.82v218.11h-44.22l-87.98-142.21v142.21h-40.83Zm-220.6-218.11h44.16v117.99c0,19.9.55,32.09,1.63,36.39,1.78,8.52,6.25,15.58,13.46,21.22,7.15,5.58,16.81,8.39,28.99,8.39s21.63-2.49,27.82-7.43c6.14-4.96,10-11.42,11.48-19.39,1.48-8.02,2.25-20.21,2.25-36.66v-120.53h44.16v114.55c0,25.79-1.15,44.07-3.55,54.94-2.38,10.87-6.75,20.11-13.04,27.67-6.3,7.62-14.88,13.61-25.74,18.03-10.85,4.42-24.88,6.6-42.03,6.6-20.4,0-36.1-2.39-47.01-7.15-10.91-4.73-19.34-10.82-25.39-18.24-5.99-7.36-10.25-15.63-12.85-24.72-2.89-13.2-4.31-31.63-4.31-55.34v-116.32h-.01Zm-170.49,218.11v-218.11h44.18v218.11h-44.18Zm-199.18-109.2c0,24.63,5.64,43.31,16.97,56,11.32,12.74,25.84,19.1,43.56,19.1s31.57-6.3,43-18.85c5.49-6.03,9.7-13.91,12.64-23.61,3-9.7,4.47-20.76,4.47-33.25,0-24.52-5.49-43-16.45-55.49-10.97-12.44-25.49-18.69-43.67-18.69s-32.4,6.3-43.61,18.85c-11.28,12.58-16.91,31.22-16.91,55.95h0Zm-45.39,1.48c0-22.19,3.3-40.82,9.95-55.89,4.97-11.12,11.73-21.08,20.31-29.91,8.57-8.78,17.96-15.33,28.17-19.6,14.16-5.73,29.8-8.63,46.96-8.63,31.73,0,57.33,10,76.82,30.06,19.45,20,29.19,47.67,29.19,82.96s-9.54,62.7-28.64,82.61c-19.04,19.85-44.68,29.79-76.77,29.79s-58.07-10-77.22-29.95c-19.19-20.01-28.79-47.12-28.79-81.44Zm-210.54,107.74v-218.11h42.91l89.31,145.61v-145.61h40.82v218.11h-44.22l-87.98-142.21v142.21h-40.84Zm-104.83-86.52l-30-80.73-29.4,80.73h59.4,0Zm81.14,86.52h-47.93l-19.04-49.65h-87.18l-17.97,49.65h-46.71l84.95-218.11h46.55l87.33,218.11h0Zm-416.59,0v-218.11h44.18v85.91h85.89v-85.91h44.18v218.11h-44.18v-95.35h-85.89v95.35h-44.18Z"/>
  <path class="cls-1" d="m7942.69,803.31v-374.13h86.16v374.13h-86.16Zm-191.43,36.06h80.54v55.26h-80.54v-55.26Zm14.52-130.64c0,11.24,1.88,19.9,5.62,26.14,3.75,5.39,10.15,8.04,19.2,8.04,10.31,0,17.48-4.37,21.54-13.11,2.19-6.55,3.28-13.58,3.28-21.07v-185.42c0-9.05-.94-16.23-2.81-21.62-3.75-8.35-11.08-12.56-22.01-12.56-10.3,0-17.48,4.06-21.61,12.09-2.11,6.55-3.2,13.89-3.2,22.09v185.42h-.02Zm-44.56-302.49l38.86-63.68h66.1l33.72,63.68h-48.7l-20.6-35.66-23.41,35.66h-45.97,0Zm-41.6,124.55c0-35.27,10.46-62.43,31.29-81.55,19.66-17.72,46.2-26.62,79.68-26.62s59.93,9.05,80.46,27.24c20.68,18.34,30.98,45.34,30.98,80.93v170.44c0,32.78-9.99,58.99-30.04,78.67-19.98,19.66-47.14,29.5-81.4,29.5s-60.64-9.68-80.53-29.03c-20.29-19.35-30.44-45.73-30.44-79.13v-170.44h0Zm-286.18,272.53v-374.13h94.12l69.22,220.62,1.01-220.62h83.35v374.13h-93.65l-69.76-231.23-.94,231.23h-83.35Zm-289.3-132.98h43.08l-20.14-183.63-22.94,183.63h0Zm33.24-327.77l20.6,63.68h-43.62l-50.97-63.68h73.98,0Zm-67.9,86.08h114.17l70.78,374.67h-90.92l-7.88-66.49h-60.48l-8.89,66.49h-86.08l69.3-374.67h0Zm-313.64,374.67v-374.13h86.16v140.01h49.63v-140.01h86.16v374.13h-86.16v-159.2h-49.63v159.2h-86.16Zm-377.32,0v-374.13h92.24c49.63,0,83.65,6.71,102.16,20.14,20.84,15.61,31.29,46.83,31.29,93.65,0,12.87-.15,21.54-.47,26.22-.63,4.99-1.88,12.17-3.75,21.46-1.87,9.68-5.85,19.2-12.17,28.56-14.67,23.8-39.49,35.66-74.45,35.66h-48.7v148.43h-86.16Zm86.16-307.63v92.71h21.46c12.49,0,21.07-3.28,25.75-9.83,4.14-7.49,6.17-19.98,6.17-37.46,0-20.6-3.59-33.88-10.85-39.8-4.68-3.75-15.53-5.61-32.7-5.61h-9.83Zm-265.96,343.69h80.54v55.26h-80.54v-55.26h0Zm-25.75-433.12l38.86-63.68h65.95l33.72,63.68h-48.7l-20.52-35.66-23.41,35.66h-45.9Zm-28.57,22.48h191.51v72.11h-105.36v74.92h92.24v72.11h-92.24v83.35h109.57v72.11h-195.72v-374.59Zm-127.36,374.59v-374.13h86.16v374.13h-86.16Zm-263.08,0v-374.13h86.16v140.01h49.63v-140.01h86.16v374.13h-86.16v-159.2h-49.63v159.2h-86.16Zm-260.26-102.08v-169.97c0-35.28,10.46-62.43,31.29-81.4,19.74-17.87,46.28-26.77,79.76-26.77s58.84,6.4,77.26,19.2c22.4,15.61,33.63,39.8,33.63,72.58v41.6h-81.87v-37.38c0-19.66-9.05-29.5-27.24-29.5-9.13,0-16.39,4.22-22.01,12.57-3.12,6.86-4.68,14.04-4.68,21.61v184.96c0,11.24,1.88,19.9,5.62,26.14,3.75,5.39,10.14,8.04,19.2,8.04,18.42,0,27.63-9.37,27.63-28.09v-48.23h-30.44v-69.3h113.78v206.03h-75.31v-30.43c-16,24.35-38.47,36.52-67.5,36.52s-48.7-10.92-62.75-32.7c-10.92-18.11-16.39-43.31-16.39-75.47h0Zm-286.18,102.07v-374.13h94.12l69.22,220.62,1.01-220.62h83.35v374.13h-93.65l-69.76-231.23-.94,231.23h-83.35,0Zm-377.32-102.08v-169.97c0-35.28,10.46-62.43,31.29-81.4,19.74-17.87,46.28-26.77,79.76-26.77s58.84,6.4,77.26,19.2c22.4,15.61,33.63,39.8,33.63,72.58v41.6h-81.87v-37.38c0-19.66-9.05-29.5-27.24-29.5-9.13,0-16.39,4.22-22.01,12.57-3.13,6.86-4.68,14.04-4.68,21.61v184.96c0,11.24,1.88,19.9,5.62,26.14,3.75,5.39,10.14,8.04,19.2,8.04,18.42,0,27.63-9.37,27.63-28.09v-48.23h-30.44v-69.3h113.78v206.03h-75.31v-30.43c-16,24.35-38.47,36.52-67.5,36.52s-48.7-10.92-62.75-32.7c-10.92-18.11-16.39-43.31-16.39-75.47h0Zm-286.18,102.07v-374.13h94.12l69.22,220.62,1.01-220.62h83.35v374.13h-93.65l-69.76-231.23-.94,231.23h-83.35,0Zm-174.11-94.58c0,11.24,1.88,19.9,5.62,26.14,3.75,5.39,10.14,8.04,19.2,8.04,10.31,0,17.48-4.37,21.54-13.11,2.19-6.55,3.28-13.58,3.28-21.07v-185.42c0-9.05-.94-16.23-2.89-21.62-3.75-8.35-11-12.56-21.93-12.56-10.3,0-17.48,4.06-21.61,12.09-2.11,6.55-3.2,13.89-3.2,22.09v185.42h-.02Zm-44.56-302.49l38.86-63.68h66.1l33.72,63.68h-48.7l-20.6-35.66-23.41,35.66h-45.97Zm-41.6,124.55c0-35.27,10.46-62.43,31.29-81.55,19.66-17.72,46.2-26.62,79.68-26.62s59.93,9.05,80.46,27.24c20.68,18.34,30.98,45.34,30.98,80.93v170.44c0,32.78-9.99,58.99-30.04,78.67-19.98,19.66-47.14,29.5-81.4,29.5s-60.64-9.68-80.53-29.03c-20.29-19.35-30.44-45.73-30.44-79.13v-170.44h0Zm-260.26,170.45v-169.97c0-35.28,10.46-62.43,31.29-81.4,19.74-17.87,46.28-26.77,79.76-26.77s59.93,9.21,80.46,27.63c20.29,18.42,30.44,45.18,30.44,80.46v34.65h-86.16v-42.06c0-9.05-.94-16.23-2.89-21.61-3.75-8.35-11-12.57-21.93-12.57-10.3,0-17.48,4.06-21.61,12.09-2.11,6.55-3.2,13.89-3.2,22.09v184.96c0,11.24,1.88,19.9,5.62,26.14,3.75,5.39,10.14,8.04,19.2,8.04,10.31,0,17.48-4.37,21.54-13.11,2.19-6.55,3.28-13.58,3.28-21.07v-54.86h86.16v47.37c0,33.09-9.99,59.31-29.97,78.67-19.98,19.66-46.98,29.5-80.93,29.5s-60.64-9.68-80.61-29.03c-20.29-19.35-30.44-45.73-30.44-79.13h-.02Zm-377.33,0v-169.97c0-35.28,10.46-62.43,31.29-81.4,19.74-17.87,46.27-26.77,79.76-26.77s59.93,9.21,80.46,27.63c20.29,18.42,30.44,45.18,30.44,80.46v34.65h-86.16v-42.06c0-9.05-.94-16.23-2.89-21.61-3.75-8.35-11-12.57-21.93-12.57-10.3,0-17.48,4.06-21.61,12.09-2.11,6.55-3.2,13.89-3.2,22.09v184.96c0,11.24,1.88,19.9,5.62,26.14,3.75,5.39,10.14,8.04,19.2,8.04,10.31,0,17.48-4.37,21.54-13.11,2.19-6.55,3.28-13.58,3.28-21.07v-54.86h86.16v47.37c0,33.09-9.99,59.31-29.97,78.67-19.98,19.66-46.98,29.5-80.93,29.5s-60.64-9.68-80.61-29.03c-20.29-19.35-30.44-45.73-30.44-79.13h-.02Zm-188.62,138.12h80.54v55.26h-80.54v-55.26Zm-71.64-308.58c0-35.27,10.46-62.43,31.29-81.55,19.66-17.72,46.2-26.62,79.68-26.62s59.93,9.05,80.46,27.24c20.68,18.34,30.98,45.34,30.98,80.93v170.44c0,32.78-9.99,58.99-30.04,78.67-19.98,19.66-47.14,29.5-81.4,29.5s-60.64-9.68-80.53-29.03c-20.29-19.35-30.44-45.73-30.44-79.13v-170.44h0Zm86.16,177.94c0,11.24,1.88,19.9,5.62,26.14,3.75,5.39,10.14,8.04,19.2,8.04,10.31,0,17.48-4.37,21.54-13.11,2.19-6.55,3.28-13.58,3.28-21.07v-185.42c0-9.05-.94-16.23-2.81-21.62-3.75-8.35-11.08-12.56-22.01-12.56-10.3,0-17.48,4.06-21.61,12.09-2.11,6.55-3.2,13.89-3.2,22.09v185.42h-.02Zm-346.42,94.58v-374.13h86.16v140.01h49.63v-140.01h86.16v374.13h-86.16v-159.2h-49.63v159.2h-86.16Zm-244.42,0v-374.13h86.16v374.13h-86.16Zm-194.71,36.06h80.54v55.26h-80.54v-55.26Zm19.66-169.03h43.15l-20.13-183.56-23.02,183.56Zm-34.65-241.61h114.25l70.78,374.67h-90.92l-7.88-66.56h-60.48l-8.97,66.56h-86.08l69.3-374.67h0Zm-227.49,145.16h26.22v58.06h-26.22v107.7h15.45c10.31,0,18.57-2.65,24.81-8.04,6.24-4.92,9.37-11.47,9.37-19.58v-187.69c0-21.31-12.02-31.92-36.13-31.92h-13.51v81.47h0Zm-86.16,58.05h-17.8v-58.06h17.8v-145.16h128.22c34.42,0,59.23,9.52,74.53,28.56,13.11,15.92,19.66,39.8,19.66,71.72v178.32c0,31.84-9.99,56.35-30.04,73.44-17.48,15.06-38.86,22.55-64.15,22.55h-128.22v-171.37h0Z"/>
</svg>