<?xml version="1.0" encoding="UTF-8"?>
<svg id="Layer_1" data-name="Layer 1" xmlns="http://www.w3.org/2000/svg" viewBox="0 0 623.62 125.26">
  <defs>
    <style>
      .cls-1 {
        fill: #666;
      }

      .cls-1, .cls-2, .cls-3 {
        stroke-width: 0px;
      }

      .cls-2 {
        fill: #f50;
      }

      .cls-3 {
        fill: #3754fa;
      }
    </style>
  </defs>
  <path class="cls-2" d="m184.93,17.68c1.2,1.2,1.8,2.78,1.8,4.74v57.89c0,1.78-.6,3.29-1.8,4.54-1.2,1.25-2.73,1.87-4.6,1.87s-3.38-.6-4.54-1.8c-1.16-1.2-1.73-2.73-1.73-4.6v-3.47c-2.31,3.11-5.47,5.76-9.47,7.94-4,2.18-8.32,3.27-12.94,3.27-6.05,0-11.54-1.56-16.48-4.67-4.93-3.11-8.8-7.45-11.6-13.01-2.8-5.56-4.2-11.81-4.2-18.74s1.4-13.18,4.2-18.74c2.8-5.56,6.64-9.89,11.54-13.01,4.89-3.11,10.27-4.67,16.14-4.67,4.71,0,9.09.98,13.14,2.94,4.05,1.96,7.27,4.45,9.67,7.47v-3.2c0-1.87.58-3.42,1.73-4.67,1.15-1.24,2.67-1.87,4.54-1.87s3.4.6,4.6,1.8Zm-20.67,55.43c3.24-2.13,5.78-5.07,7.6-8.8,1.82-3.74,2.74-7.96,2.74-12.67s-.91-8.8-2.74-12.54c-1.82-3.74-4.36-6.69-7.6-8.87-3.25-2.18-6.96-3.27-11.14-3.27s-7.89,1.07-11.14,3.2c-3.25,2.13-5.78,5.07-7.6,8.8-1.82,3.73-2.74,7.96-2.74,12.67s.91,8.94,2.74,12.67c1.82,3.74,4.36,6.67,7.6,8.8,3.25,2.13,6.96,3.2,11.14,3.2s7.89-1.07,11.14-3.2Z"/>
  <path class="cls-2" d="m269.68,17.67c1.2,1.2,1.8,2.78,1.8,4.74v58.69c0,7.21-1.53,13.23-4.6,18.08-3.07,4.85-7.23,8.43-12.47,10.74-5.25,2.31-11.16,3.47-17.74,3.47-3.56,0-7.72-.62-12.47-1.87-4.76-1.25-7.8-2.53-9.14-3.87-2.76-1.42-4.13-3.2-4.13-5.33,0-.54.18-1.25.53-2.13.98-2.23,2.62-3.33,4.94-3.33,1.15,0,2.4.27,3.73.8,7.11,2.76,12.67,4.13,16.68,4.13,7.11,0,12.56-1.71,16.34-5.13,3.78-3.43,5.67-8.12,5.67-14.07v-7.2c-1.87,3.47-5,6.45-9.41,8.94-4.4,2.49-9.05,3.74-13.94,3.74-6.14,0-11.74-1.56-16.81-4.67-5.07-3.11-9.05-7.45-11.94-13.01-2.89-5.56-4.33-11.81-4.33-18.74s1.44-13.18,4.33-18.74c2.89-5.56,6.85-9.89,11.87-13.01,5.02-3.11,10.56-4.67,16.61-4.67,4.89,0,9.45,1.11,13.67,3.33,4.22,2.22,7.54,4.94,9.94,8.14v-4.27c0-1.87.58-3.42,1.73-4.67,1.15-1.24,2.67-1.87,4.54-1.87s3.4.6,4.6,1.8Zm-19.77,55.49c3.38-2.09,6.02-5.02,7.94-8.8,1.91-3.78,2.87-8.02,2.87-12.74s-.96-8.94-2.87-12.67c-1.91-3.74-4.56-6.67-7.94-8.8-3.38-2.13-7.25-3.2-11.61-3.2s-8.09,1.07-11.47,3.2c-3.38,2.13-6.02,5.09-7.94,8.87-1.91,3.78-2.87,7.98-2.87,12.61s.95,8.83,2.87,12.61c1.91,3.78,4.56,6.74,7.94,8.87,3.38,2.13,7.2,3.2,11.47,3.2s8.23-1.04,11.61-3.13Z"/>
  <path class="cls-3" d="m429.83,44.02v36.28c0,1.78-.6,3.29-1.8,4.54-1.2,1.25-2.74,1.87-4.6,1.87s-3.27-.62-4.47-1.87c-1.2-1.24-1.8-2.76-1.8-4.54v-36.15c0-5.25-1.2-9.42-3.6-12.54-2.4-3.11-6.32-4.67-11.74-4.67-3.56,0-6.78.78-9.67,2.33-2.89,1.56-5.16,3.65-6.8,6.27-1.64,2.62-2.47,5.49-2.47,8.6v36.15c0,1.78-.6,3.29-1.8,4.54-1.2,1.25-2.73,1.87-4.6,1.87s-3.38-.6-4.54-1.8c-1.16-1.2-1.73-2.73-1.73-4.6V23.21c0-1.78.6-3.29,1.8-4.54,1.2-1.24,2.69-1.87,4.47-1.87,1.87,0,3.4.62,4.6,1.87,1.2,1.25,1.8,2.76,1.8,4.54v4.67c2.31-3.56,5.54-6.56,9.67-9,4.13-2.45,8.56-3.67,13.27-3.67,16.01,0,24.01,9.6,24.01,28.81Z"/>
  <path class="cls-3" d="m506.31,53.16c-1.25,1.11-2.71,1.67-4.4,1.67h-46.96c.62,6.49,3.09,11.69,7.41,15.61,4.31,3.91,9.58,5.87,15.81,5.87,4.27,0,7.74-.62,10.41-1.87,2.67-1.24,5.02-2.85,7.07-4.8,1.33-.8,2.62-1.2,3.87-1.2,1.51,0,2.78.53,3.8,1.6,1.02,1.07,1.53,2.31,1.53,3.74,0,1.87-.89,3.56-2.67,5.07-2.58,2.58-6,4.76-10.27,6.54-4.27,1.78-8.63,2.67-13.07,2.67-7.2,0-13.54-1.51-19.01-4.54-5.47-3.02-9.69-7.25-12.67-12.67-2.98-5.42-4.47-11.56-4.47-18.41,0-7.47,1.53-14.03,4.6-19.68,3.07-5.65,7.11-9.98,12.14-13.01,5.02-3.02,10.43-4.54,16.21-4.54s11.03,1.47,16.01,4.4c4.98,2.94,8.98,6.98,12,12.14,3.02,5.16,4.58,10.94,4.67,17.34-.09,1.6-.76,2.96-2,4.07Zm-43.62-22.01c-3.65,2.8-6.05,7.14-7.2,13.01h39.35v-1.07c-.45-4.71-2.56-8.58-6.34-11.6-3.78-3.02-8.07-4.54-12.87-4.54s-9.29,1.4-12.94,4.2Z"/>
  <path class="cls-3" d="m519.74,72.17c0-1.78.93-3.29,2.8-4.54.89-.62,1.91-.93,3.07-.93,1.6,0,3.07.67,4.4,2,2.67,3.02,5.54,5.29,8.6,6.8,3.07,1.51,6.74,2.27,11.01,2.27,3.38-.09,6.36-.87,8.94-2.33,2.58-1.47,3.87-3.85,3.87-7.14,0-3.02-1.31-5.34-3.93-6.94-2.62-1.6-6.47-3.07-11.54-4.4-4.98-1.33-9.12-2.73-12.41-4.2-3.29-1.47-6.07-3.6-8.34-6.4-2.27-2.8-3.4-6.47-3.4-11.01,0-4,1.13-7.51,3.4-10.54,2.27-3.02,5.29-5.38,9.07-7.07,3.78-1.69,7.89-2.53,12.34-2.53s8.51.8,12.74,2.4c4.22,1.6,7.67,4.05,10.34,7.34,1.07,1.25,1.6,2.53,1.6,3.87,0,1.42-.71,2.8-2.13,4.14-.89.8-2,1.2-3.33,1.2-1.6,0-2.89-.53-3.87-1.6-1.87-2.13-4.16-3.78-6.87-4.94-2.71-1.15-5.72-1.73-9-1.73s-6.25.69-8.6,2.07c-2.36,1.38-3.54,3.71-3.54,7,.09,3.11,1.44,5.43,4.07,6.94,2.62,1.51,6.65,2.98,12.07,4.4,4.71,1.25,8.62,2.58,11.74,4,3.11,1.42,5.74,3.54,7.87,6.34,2.13,2.8,3.2,6.47,3.2,11.01,0,4.18-1.2,7.8-3.6,10.87-2.4,3.07-5.54,5.42-9.4,7.07-3.87,1.64-7.98,2.47-12.34,2.47-5.6,0-10.78-.98-15.54-2.94-4.76-1.96-8.78-5.07-12.07-9.34-.8-1.24-1.2-2.44-1.2-3.6Z"/>
  <path class="cls-3" d="m606.68,29.21v39.75c0,4.45,2,6.67,6,6.67.62,0,1.47-.15,2.53-.46,1.07-.31,1.91-.47,2.54-.47,1.15,0,2.13.49,2.93,1.47.8.98,1.2,2.22,1.2,3.73,0,1.87-1.07,3.47-3.2,4.8-2.13,1.33-4.54,2-7.2,2-2.94,0-5.63-.31-8.07-.93-2.45-.62-4.63-2.2-6.54-4.74-1.91-2.53-2.87-6.38-2.87-11.54V29.21h-7.74c-1.69,0-3.09-.55-4.2-1.67-1.11-1.11-1.67-2.51-1.67-4.2s.55-3.07,1.67-4.13c1.11-1.07,2.51-1.6,4.2-1.6h7.74V6.4c0-1.78.6-3.29,1.8-4.54C597.01.62,598.54,0,600.41,0s3.27.62,4.47,1.87c1.2,1.25,1.8,2.76,1.8,4.54v11.2h11.07c1.69,0,3.09.56,4.2,1.67,1.11,1.11,1.67,2.51,1.67,4.2s-.56,3.07-1.67,4.13c-1.11,1.07-2.51,1.6-4.2,1.6h-11.07Z"/>
  <path class="cls-2" d="m81.38,14.97c-5.14,0-10.02,1.53-14.63,4.6-4.6,3.06-7.9,6.49-9.87,10.29-3.36-9.92-10.62-14.89-21.8-14.89-4.62,0-8.88,1.19-12.81,3.59-3.92,2.39-7.06,5.35-9.41,8.87v-4.74c0-1.81-.6-3.34-1.82-4.6-1.22-1.28-2.77-1.9-4.67-1.9s-3.32.62-4.54,1.9c-1.2,1.26-1.82,2.79-1.82,4.6v57.96c0,1.88.58,3.45,1.77,4.67,1.17,1.2,2.7,1.82,4.6,1.82s3.45-.64,4.67-1.9c1.22-1.26,1.82-2.79,1.82-4.6v-36.16c0-4.96,1.75-9.14,5.22-12.53,3.48-3.37,7.88-5.07,13.21-5.07s8.98,1.61,11.24,4.8c2.24,3.21,3.38,7.48,3.38,12.81v36.16c0,1.88.58,3.45,1.77,4.67,1.17,1.2,2.7,1.82,4.6,1.82s3.45-.64,4.67-1.9c1.22-1.26,1.82-2.79,1.82-4.6v-36.03c0-.47.02-.93.05-1.39.2-2.72.97-5.22,2.32-7.55,1.59-2.7,3.79-4.85,6.64-6.42,2.85-1.59,6.02-2.37,9.54-2.37,9.94,0,14.9,5.91,14.9,17.73v36.03c0,1.81.6,3.34,1.82,4.6,1.22,1.26,2.77,1.9,4.67,1.9s3.43-.62,4.6-1.82c1.19-1.22,1.77-2.79,1.77-4.67v-36.16c0-19.68-7.9-29.52-23.7-29.52Z"/>
  <path class="cls-3" d="m358.74,59.97c0,.49-.06.96-.16,1.42-.03.15-.08.3-.12.45,0,.01,0,.02,0,.03-4.5,15-18.42,25.93-34.89,25.93-10.06,0-19.16-4.08-25.75-10.67l9.01-9.01c4.29,4.28,10.2,6.93,16.74,6.93,10.75,0,19.82-7.17,22.71-16.98.03-.11.06-.21.08-.32h.03c.84-2.27,2.94-3.93,5.46-4.14.17,0,.34-.02.52-.02,1.64,0,3.14.62,4.26,1.64,1.3,1.16,2.12,2.86,2.12,4.74Z"/>
  <g>
    <path class="cls-1" d="m345.09,109.13c4.34,0,8.02,3.16,8.02,8.07s-3.68,8.05-8.02,8.05-8.05-3.16-8.05-8.05,3.69-8.07,8.05-8.07Zm0,12.71c2.14,0,4.45-1.44,4.45-4.67s-2.31-4.69-4.45-4.69-4.47,1.46-4.47,4.69,2.31,4.67,4.47,4.67Z"/>
    <path class="cls-1" d="m368.92,124.91l-6.37-10.16v10.16h-3.42v-15.46h4.19l5.8,9.4v-9.4h3.45v15.46h-3.64Z"/>
    <path class="cls-1" d="m379.45,124.91v-15.46h9.79v3.25h-6.35v2.94h5.76v3.03h-5.76v2.97h6.37v3.27h-9.81Z"/>
    <path class="cls-1" d="m394.99,119.83v-2.99h6.54v2.99h-6.54Z"/>
    <path class="cls-1" d="m415.27,114.12c-.11-.72-.7-1.94-2.57-1.94-1.29,0-2.12.81-2.12,1.66,0,.74.46,1.29,1.53,1.48l2.07.39c2.94.55,4.47,2.44,4.47,4.65,0,2.42-2.03,4.88-5.71,4.88-4.27,0-6.11-2.77-6.32-4.95l3.16-.76c.13,1.42,1.09,2.66,3.21,2.66,1.35,0,2.18-.65,2.18-1.61,0-.79-.63-1.35-1.66-1.55l-2.11-.39c-2.62-.5-4.21-2.25-4.21-4.54,0-2.92,2.57-4.97,5.54-4.97,3.86,0,5.32,2.31,5.65,4.12l-3.1.87Z"/>
    <path class="cls-1" d="m431.47,112.75v12.17h-3.45v-12.17h-4.75v-3.29h12.97v3.29h-4.78Z"/>
    <path class="cls-1" d="m448.7,109.13c4.34,0,8.02,3.16,8.02,8.07s-3.68,8.05-8.02,8.05-8.05-3.16-8.05-8.05,3.69-8.07,8.05-8.07Zm0,12.71c2.14,0,4.45-1.44,4.45-4.67s-2.31-4.69-4.45-4.69-4.47,1.46-4.47,4.69,2.31,4.67,4.47,4.67Z"/>
    <path class="cls-1" d="m466.18,119.35v5.56h-3.45v-15.46h5.82c3.14,0,5.3,2.07,5.3,4.95s-2.16,4.95-5.3,4.95h-2.38Zm2.03-2.97c1.31,0,2.2-.76,2.2-1.96s-.89-1.98-2.2-1.98h-2.01v3.95h2.01Z"/>
    <path class="cls-1" d="m496.12,114.12c-.11-.72-.7-1.94-2.57-1.94-1.29,0-2.12.81-2.12,1.66,0,.74.46,1.29,1.53,1.48l2.07.39c2.94.55,4.47,2.44,4.47,4.65,0,2.42-2.03,4.88-5.71,4.88-4.27,0-6.11-2.77-6.32-4.95l3.16-.76c.13,1.42,1.09,2.66,3.21,2.66,1.35,0,2.18-.65,2.18-1.61,0-.79-.63-1.35-1.66-1.55l-2.11-.39c-2.62-.5-4.21-2.25-4.21-4.54,0-2.92,2.57-4.97,5.54-4.97,3.86,0,5.32,2.31,5.65,4.12l-3.1.87Z"/>
    <path class="cls-1" d="m512.54,109.13c4.34,0,8.02,3.16,8.02,8.07s-3.68,8.05-8.02,8.05-8.05-3.16-8.05-8.05,3.69-8.07,8.05-8.07Zm0,12.71c2.14,0,4.45-1.44,4.45-4.67s-2.31-4.69-4.45-4.69-4.47,1.46-4.47,4.69,2.31,4.67,4.47,4.67Z"/>
    <path class="cls-1" d="m526.58,124.91v-15.46h3.45v12.17h6.67v3.29h-10.12Z"/>
    <path class="cls-1" d="m542.12,119.33v-9.88h3.45v9.59c0,1.88,1.05,2.81,2.68,2.81s2.68-.94,2.68-2.81v-9.59h3.45v9.88c0,3.88-2.73,5.93-6.13,5.93s-6.13-2.05-6.13-5.93Z"/>
    <path class="cls-1" d="m568.2,112.75v12.17h-3.45v-12.17h-4.75v-3.29h12.97v3.29h-4.78Z"/>
    <path class="cls-1" d="m578.62,124.91v-15.46h3.49v15.46h-3.49Z"/>
    <path class="cls-1" d="m596.15,109.13c4.34,0,8.02,3.16,8.02,8.07s-3.68,8.05-8.02,8.05-8.05-3.16-8.05-8.05,3.69-8.07,8.05-8.07Zm0,12.71c2.14,0,4.45-1.44,4.45-4.67s-2.31-4.69-4.45-4.69-4.47,1.46-4.47,4.69,2.31,4.67,4.47,4.67Z"/>
    <path class="cls-1" d="m619.98,124.91l-6.37-10.16v10.16h-3.42v-15.46h4.19l5.8,9.4v-9.4h3.45v15.46h-3.64Z"/>
  </g>
  <path class="cls-2" d="m349.32,25.61c-6.59-6.59-15.7-10.67-25.76-10.67-20.12,0-36.43,16.31-36.43,36.43,0,10.06,4.08,19.17,10.68,25.75l9.01-9.01,42.5-42.5Zm-47.31,32.25c-.8,0-1.5-.45-1.86-1.11-.04-.07-.07-.14-.1-.21-1.15-2.61-1.79-5.51-1.79-8.55,0-11.74,9.52-21.26,21.26-21.26,3.05,0,5.96.65,8.58,1.81.76.32,1.29,1.07,1.29,1.95,0,.59-.24,1.11-.62,1.5l-25.25,25.25c-.39.38-.92.62-1.51.62Z"/>
</svg>