<svg width="644" height="33" viewBox="0 0 644 33" fill="none" xmlns="http://www.w3.org/2000/svg">
<rect width="644" height="33" fill="#1E1E1E"/>
<g clip-path="url(#clip0_1_2)">
<path d="M0 12.9445C0 8.58848 0 6.4105 0.847727 4.74674C1.59341 3.28326 2.78326 2.09341 4.24674 1.34773C5.9105 0.5 8.08848 0.5 12.4444 0.5H631.555C635.911 0.5 638.089 0.5 639.753 1.34773C641.217 2.09341 642.407 3.28326 643.152 4.74674C644 6.4105 644 8.58848 644 12.9444V31.6111H0V12.9445Z" fill="#25334D"/>
<path d="M566.229 17.1239C566.557 17.1239 566.828 16.853 566.828 16.5305V10.0414L566.783 9.08679L567.176 9.55767L568.079 10.5188C568.182 10.6349 568.33 10.6929 568.478 10.6929C568.775 10.6929 569.02 10.4801 569.02 10.1769C569.02 10.0156 568.955 9.89953 568.846 9.78988L566.686 7.70641C566.532 7.5516 566.383 7.5 566.229 7.5C566.067 7.5 565.926 7.5516 565.771 7.70641L563.605 9.78988C563.496 9.89953 563.431 10.0156 563.431 10.1769C563.431 10.4801 563.67 10.6929 563.966 10.6929C564.114 10.6929 564.269 10.6349 564.372 10.5188L565.275 9.55767L565.674 9.08034L565.623 10.0414V16.5305C565.623 16.853 565.893 17.1239 566.229 17.1239ZM562.509 22.2778H569.935C571.334 22.2778 572.056 21.5553 572.056 20.175V13.8343C572.056 12.4539 571.334 11.7314 569.935 11.7314H568.195V13.0151H569.851C570.438 13.0151 570.773 13.3247 570.773 13.9439V20.0589C570.773 20.6781 570.438 20.9877 569.851 20.9877H562.593C562 20.9877 561.672 20.6781 561.672 20.0589V13.9439C561.672 13.3247 562 13.0151 562.593 13.0151H564.269V11.7314H562.509C561.117 11.7314 560.389 12.4474 560.389 13.8343V20.175C560.389 21.5553 561.117 22.2778 562.509 22.2778ZM593.444 20.7223C593.854 20.7223 594.186 20.3896 594.186 20.0121V16.0072H598.154C598.551 16.0072 598.889 15.6809 598.889 15.2778C598.889 14.8812 598.551 14.5485 598.154 14.5485H594.186V10.5435C594.186 10.1597 593.854 9.83337 593.444 9.83337C593.041 9.83337 592.703 10.1597 592.703 10.5435V14.5485H588.735C588.351 14.5485 588 14.8812 588 15.2778C588 15.6809 588.351 16.0072 588.735 16.0072H592.703V20.0121C592.703 20.3896 593.041 20.7223 593.444 20.7223ZM617.344 19.1938H618.44V20.1675C618.44 21.5475 619.169 22.2698 620.562 22.2698H627.101C628.493 22.2698 629.222 21.5475 629.222 20.1675V13.5834C629.222 12.2034 628.493 11.4812 627.101 11.4812H626.004V10.5139C626.004 9.13387 625.276 8.41162 623.883 8.41162H617.344C615.944 8.41162 615.222 9.13387 615.222 10.5139V17.0915C615.222 18.478 615.944 19.1938 617.344 19.1938ZM617.428 17.9105C616.834 17.9105 616.505 17.6009 616.505 16.9754V10.63C616.505 10.0044 616.834 9.70135 617.428 9.70135H623.799C624.386 9.70135 624.721 10.0044 624.721 10.63V11.4812H620.562C619.169 11.4812 618.44 12.2034 618.44 13.5834V17.9105H617.428ZM620.645 20.98C620.052 20.98 619.73 20.6705 619.73 20.0514V13.6995C619.73 13.0804 620.052 12.7709 620.645 12.7709H627.017C627.61 12.7709 627.939 13.0804 627.939 13.6995V20.0514C627.939 20.6705 627.61 20.98 627.017 20.98H620.645Z" fill="#B7B7B7"/>
<path d="M78.3463 21.8999H89.3928C90.7937 21.8999 91.5233 21.1769 91.5233 19.7952V11.9381C91.5233 10.5565 90.7937 9.83337 89.3928 9.83337H78.3463C76.9517 9.83337 76.2222 10.55 76.2222 11.9381V19.7952C76.2222 21.1769 76.9517 21.8999 78.3463 21.8999ZM78.4302 20.6152C77.8362 20.6152 77.507 20.3053 77.507 19.679V12.0543C77.507 11.428 77.8362 11.1182 78.4302 11.1182H81.3742V20.6152H78.4302ZM89.3088 11.1182C89.9028 11.1182 90.2321 11.428 90.2321 12.0543V19.679C90.2321 20.3053 89.9028 20.6152 89.3088 20.6152H82.5944V11.1182H89.3088ZM80.1088 13.4811C80.3412 13.4811 80.5349 13.281 80.5349 13.0615C80.5349 12.8419 80.3412 12.6483 80.1088 12.6483H78.7853C78.5529 12.6483 78.3592 12.8419 78.3592 13.0615C78.3592 13.281 78.5529 13.4811 78.7853 13.4811H80.1088ZM80.1088 15.2178C80.3412 15.2178 80.5349 15.0241 80.5349 14.7982C80.5349 14.5787 80.3412 14.385 80.1088 14.385H78.7853C78.5529 14.385 78.3592 14.5787 78.3592 14.7982C78.3592 15.0241 78.5529 15.2178 78.7853 15.2178H80.1088ZM80.1088 16.9481C80.3412 16.9481 80.5349 16.7608 80.5349 16.5349C80.5349 16.3154 80.3412 16.1281 80.1088 16.1281H78.7853C78.5529 16.1281 78.3592 16.3154 78.3592 16.5349C78.3592 16.7608 78.5529 16.9481 78.7853 16.9481H80.1088ZM116.199 20.7952L111.471 16.1711C111.307 16.007 111.222 15.8247 111.222 15.612C111.222 15.3994 111.307 15.2049 111.477 15.0469L116.205 10.4289C116.339 10.2952 116.509 10.2223 116.703 10.2223C117.11 10.2223 117.426 10.5383 117.426 10.9393C117.426 11.1337 117.347 11.3221 117.207 11.4619L112.954 15.606L117.207 19.7622C117.347 19.902 117.426 20.0843 117.426 20.2848C117.426 20.6858 117.11 21.0018 116.703 21.0018C116.509 21.0018 116.339 20.9289 116.199 20.7952Z" fill="#B7B7B7"/>
<path d="M139.556 21.0018C139.757 21.0018 139.921 20.9289 140.061 20.7952L144.788 16.1772C144.952 16.007 145.037 15.8308 145.037 15.612C145.037 15.3994 144.958 15.211 144.788 15.053L140.061 10.4289C139.921 10.2952 139.757 10.2223 139.556 10.2223C139.149 10.2223 138.833 10.5383 138.833 10.9393C138.833 11.1337 138.918 11.3221 139.052 11.4619L143.312 15.6181L139.052 19.7622C138.912 19.9081 138.833 20.0843 138.833 20.2848C138.833 20.6858 139.149 21.0018 139.556 21.0018Z" fill="#5A5A5A"/>
<path d="M20.2222 20.7223C22.7995 20.7223 24.8889 18.6329 24.8889 16.0556C24.8889 13.4783 22.7995 11.3889 20.2222 11.3889C17.6449 11.3889 15.5555 13.4783 15.5555 16.0556C15.5555 18.6329 17.6449 20.7223 20.2222 20.7223Z" fill="#ED6A5E"/>
<path d="M20.2222 20.3334C22.5848 20.3334 24.5 18.4181 24.5 16.0556C24.5 13.693 22.5848 11.7778 20.2222 11.7778C17.8596 11.7778 15.9444 13.693 15.9444 16.0556C15.9444 18.4181 17.8596 20.3334 20.2222 20.3334Z" stroke="black" stroke-opacity="0.1" stroke-width="0.777778"/>
<path d="M35.7778 20.7223C38.3551 20.7223 40.4445 18.6329 40.4445 16.0556C40.4445 13.4783 38.3551 11.3889 35.7778 11.3889C33.2005 11.3889 31.1111 13.4783 31.1111 16.0556C31.1111 18.6329 33.2005 20.7223 35.7778 20.7223Z" fill="#F4BD50"/>
<path d="M35.7778 20.3334C38.1404 20.3334 40.0556 18.4181 40.0556 16.0556C40.0556 13.693 38.1404 11.7778 35.7778 11.7778C33.4152 11.7778 31.5 13.693 31.5 16.0556C31.5 18.4181 33.4152 20.3334 35.7778 20.3334Z" stroke="black" stroke-opacity="0.1" stroke-width="0.777778"/>
<path d="M51.3333 20.7223C53.9106 20.7223 56 18.6329 56 16.0556C56 13.4783 53.9106 11.3889 51.3333 11.3889C48.756 11.3889 46.6666 13.4783 46.6666 16.0556C46.6666 18.6329 48.756 20.7223 51.3333 20.7223Z" fill="#61C454"/>
<path d="M51.3333 20.3334C53.6959 20.3334 55.6111 18.4181 55.6111 16.0556C55.6111 13.693 53.6959 11.7778 51.3333 11.7778C48.9707 11.7778 47.0555 13.693 47.0555 16.0556C47.0555 18.4181 48.9707 20.3334 51.3333 20.3334Z" stroke="black" stroke-opacity="0.1" stroke-width="0.777778"/>
<path d="M220.889 22.2778C221.005 22.2778 221.178 22.2388 221.339 22.1478C225.046 20.1141 226.333 19.172 226.333 16.8069V11.9014C226.333 11.1217 226.031 10.8423 225.387 10.5629C224.673 10.2576 222.272 9.4129 221.571 9.1725C221.359 9.10102 221.108 9.05554 220.889 9.05554C220.67 9.05554 220.419 9.11402 220.207 9.1725C219.505 9.37391 217.105 10.2641 216.39 10.5629C215.747 10.8358 215.444 11.1217 215.444 11.9014V16.8069C215.444 19.172 216.738 20.1011 220.432 22.1478C220.599 22.2388 220.773 22.2778 220.889 22.2778ZM221.236 10.368C222.079 10.7059 223.914 11.3621 224.879 11.7065C225.059 11.778 225.104 11.8754 225.104 12.1093V16.5665C225.104 18.4703 224.158 18.9836 221.256 20.7509C221.075 20.8613 220.985 20.9003 220.895 20.9003V10.2966C220.985 10.2966 221.082 10.316 221.236 10.368Z" fill="#B7B7B7"/>
<path d="M234.111 12.6333C234.111 10.0197 234.111 8.71292 234.62 7.71467C235.067 6.83658 235.781 6.12267 236.659 5.67526C237.657 5.16663 238.964 5.16663 241.578 5.16663H402.422C405.036 5.16663 406.343 5.16663 407.341 5.67526C408.219 6.12267 408.933 6.83658 409.38 7.71467C409.889 8.71292 409.889 10.0197 409.889 12.6333V19.4777C409.889 22.0913 409.889 23.3981 409.38 24.3964C408.933 25.2744 408.219 25.9884 407.341 26.4358C406.343 26.9444 405.036 26.9444 402.422 26.9444H241.578C238.964 26.9444 237.657 26.9444 236.659 26.4358C235.781 25.9884 235.067 25.2744 234.62 24.3964C234.111 23.3981 234.111 22.0913 234.111 19.4777V12.6333Z" fill="#3C5175"/>
<path d="M400.423 15.8474C400.556 15.8474 400.66 15.8064 400.742 15.7198L402.611 13.8376C402.711 13.7374 402.757 13.628 402.757 13.5004C402.757 13.3774 402.707 13.2589 402.611 13.1677L400.742 11.2673C400.66 11.1762 400.556 11.1306 400.423 11.1306C400.177 11.1306 399.981 11.3357 399.981 11.5863C399.981 11.7094 400.027 11.8097 400.104 11.8962L401.194 12.9626C400.979 12.9307 400.761 12.9125 400.542 12.9125C398.286 12.9125 396.481 14.7172 396.481 16.9776C396.481 19.238 398.3 21.0564 400.556 21.0564C402.816 21.0564 404.63 19.238 404.63 16.9776C404.63 16.7042 404.438 16.5082 404.165 16.5082C403.901 16.5082 403.723 16.7042 403.723 16.9776C403.723 18.7367 402.315 20.1495 400.556 20.1495C398.801 20.1495 397.388 18.7367 397.388 16.9776C397.388 15.2048 398.787 13.8012 400.542 13.8012C400.838 13.8012 401.112 13.824 401.353 13.865L400.109 15.0955C400.027 15.1775 399.981 15.2778 399.981 15.4008C399.981 15.6514 400.177 15.8474 400.423 15.8474Z" fill="#E3E3E3"/>
<path d="M248 10.6666C246.392 10.6666 245.083 11.975 245.083 13.5833V15.3333H244.5C243.857 15.3333 243.333 15.8565 243.333 16.5V21.1666C243.333 21.81 243.857 22.3333 244.5 22.3333H251.5C252.143 22.3333 252.667 21.81 252.667 21.1666V16.5C252.667 15.8565 252.143 15.3333 251.5 15.3333H250.917V13.5833C250.917 11.975 249.608 10.6666 248 10.6666ZM251.5 16.5L251.501 21.1666H244.5V16.5H251.5ZM246.25 15.3333V13.5833C246.25 12.6185 247.035 11.8333 248 11.8333C248.965 11.8333 249.75 12.6185 249.75 13.5833V15.3333H246.25Z" fill="white"/>
<path d="M261.028 18.7798L261.02 17.2244H261.241L263.849 14.4545H265.375L262.401 17.608H262.2L261.028 18.7798ZM259.857 21V12.2727H261.131V21H259.857ZM263.99 21L261.646 17.8892L262.524 16.9986L265.554 21H263.99ZM267.81 17.1136V21H266.536V12.2727H267.793V15.5199H267.874C268.028 15.1676 268.262 14.8878 268.577 14.6804C268.893 14.473 269.305 14.3693 269.813 14.3693C270.262 14.3693 270.654 14.4616 270.989 14.6463C271.327 14.831 271.589 15.1065 271.773 15.473C271.961 15.8366 272.055 16.2912 272.055 16.8366V21H270.781V16.9901C270.781 16.5099 270.657 16.1378 270.41 15.8736C270.163 15.6065 269.819 15.473 269.379 15.473C269.077 15.473 268.808 15.5369 268.569 15.6648C268.333 15.7926 268.147 15.9801 268.011 16.2273C267.877 16.4716 267.81 16.767 267.81 17.1136ZM277.901 18.2855V14.4545H279.18V21H277.927V19.8665H277.859C277.708 20.2159 277.467 20.5071 277.134 20.7401C276.805 20.9702 276.394 21.0852 275.903 21.0852C275.482 21.0852 275.11 20.9929 274.786 20.8082C274.465 20.6207 274.212 20.3438 274.028 19.9773C273.846 19.6108 273.755 19.1577 273.755 18.6179V14.4545H275.029V18.4645C275.029 18.9105 275.153 19.2656 275.4 19.5298C275.647 19.794 275.968 19.9261 276.363 19.9261C276.602 19.9261 276.839 19.8665 277.075 19.7472C277.313 19.6278 277.511 19.4474 277.667 19.206C277.826 18.9645 277.904 18.6577 277.901 18.2855ZM282.797 21.1449C282.382 21.1449 282.007 21.0682 281.672 20.9148C281.336 20.7585 281.071 20.5327 280.875 20.2372C280.681 19.9418 280.585 19.5795 280.585 19.1506C280.585 18.7812 280.656 18.4773 280.798 18.2386C280.94 18 281.132 17.8111 281.373 17.6719C281.615 17.5327 281.885 17.4276 282.183 17.3565C282.481 17.2855 282.785 17.2315 283.095 17.1946C283.487 17.1491 283.805 17.1122 284.049 17.0838C284.294 17.0526 284.471 17.0028 284.582 16.9347C284.693 16.8665 284.748 16.7557 284.748 16.6023V16.5724C284.748 16.2003 284.643 15.9119 284.433 15.7074C284.225 15.5028 283.916 15.4006 283.504 15.4006C283.075 15.4006 282.737 15.4957 282.49 15.6861C282.245 15.8736 282.076 16.0824 281.983 16.3125L280.785 16.0398C280.927 15.642 281.135 15.321 281.407 15.0767C281.683 14.8295 282 14.6506 282.358 14.5398C282.716 14.4261 283.092 14.3693 283.487 14.3693C283.748 14.3693 284.025 14.4006 284.318 14.4631C284.613 14.5227 284.889 14.6335 285.145 14.7955C285.403 14.9574 285.615 15.1889 285.779 15.4901C285.944 15.7884 286.027 16.1761 286.027 16.6534V21H284.782V20.1051H284.731C284.649 20.2699 284.525 20.4318 284.36 20.5909C284.196 20.75 283.984 20.8821 283.725 20.9872C283.467 21.0923 283.157 21.1449 282.797 21.1449ZM283.074 20.1222C283.426 20.1222 283.727 20.0526 283.977 19.9134C284.23 19.7741 284.422 19.5923 284.552 19.3679C284.686 19.1406 284.752 18.8977 284.752 18.6392V17.7955C284.707 17.8409 284.619 17.8835 284.488 17.9233C284.36 17.9602 284.214 17.9929 284.049 18.0213C283.885 18.0469 283.724 18.071 283.568 18.0938C283.412 18.1136 283.281 18.1307 283.176 18.1449C282.929 18.1761 282.703 18.2287 282.498 18.3026C282.297 18.3764 282.135 18.483 282.012 18.6222C281.893 18.7585 281.833 18.9403 281.833 19.1676C281.833 19.483 281.95 19.7216 282.183 19.8835C282.416 20.0426 282.713 20.1222 283.074 20.1222ZM290.779 14.4545V15.4773H287.204V14.4545H290.779ZM288.163 12.8864H289.437V19.0781C289.437 19.3253 289.474 19.5114 289.548 19.6364C289.621 19.7585 289.717 19.8423 289.833 19.8878C289.952 19.9304 290.082 19.9517 290.221 19.9517C290.323 19.9517 290.413 19.9446 290.489 19.9304C290.566 19.9162 290.626 19.9048 290.668 19.8963L290.898 20.9489C290.825 20.9773 290.719 21.0057 290.583 21.0341C290.447 21.0653 290.276 21.0824 290.072 21.0852C289.737 21.0909 289.424 21.0312 289.134 20.9062C288.844 20.7812 288.61 20.5881 288.431 20.3267C288.252 20.0653 288.163 19.7372 288.163 19.3423V12.8864ZM293.603 17.1136V21H292.329V12.2727H293.586V15.5199H293.667C293.821 15.1676 294.055 14.8878 294.37 14.6804C294.686 14.473 295.098 14.3693 295.606 14.3693C296.055 14.3693 296.447 14.4616 296.782 14.6463C297.12 14.831 297.382 15.1065 297.566 15.473C297.754 15.8366 297.848 16.2912 297.848 16.8366V21H296.574V16.9901C296.574 16.5099 296.45 16.1378 296.203 15.8736C295.956 15.6065 295.612 15.473 295.172 15.473C294.87 15.473 294.6 15.5369 294.362 15.6648C294.126 15.7926 293.94 15.9801 293.804 16.2273C293.67 16.4716 293.603 16.767 293.603 17.1136ZM303.694 18.2855V14.4545H304.973V21H303.72V19.8665H303.652C303.501 20.2159 303.26 20.5071 302.927 20.7401C302.598 20.9702 302.187 21.0852 301.696 21.0852C301.275 21.0852 300.903 20.9929 300.579 20.8082C300.258 20.6207 300.005 20.3438 299.821 19.9773C299.639 19.6108 299.548 19.1577 299.548 18.6179V14.4545H300.822V18.4645C300.822 18.9105 300.946 19.2656 301.193 19.5298C301.44 19.794 301.761 19.9261 302.156 19.9261C302.395 19.9261 302.632 19.8665 302.868 19.7472C303.106 19.6278 303.304 19.4474 303.46 19.206C303.619 18.9645 303.697 18.6577 303.694 18.2855ZM307.49 23.4545C307.3 23.4545 307.126 23.4389 306.97 23.4077C306.814 23.3793 306.697 23.348 306.621 23.3139L306.928 22.2699C307.161 22.3324 307.368 22.3594 307.55 22.3509C307.732 22.3423 307.892 22.2741 308.031 22.1463C308.173 22.0185 308.298 21.8097 308.406 21.5199L308.564 21.0852L306.169 14.4545H307.533L309.19 19.5341H309.259L310.916 14.4545H312.284L309.587 21.8736C309.462 22.2145 309.303 22.5028 309.109 22.7386C308.916 22.9773 308.686 23.1563 308.419 23.2756C308.152 23.3949 307.842 23.4545 307.49 23.4545ZM314.653 18.7798L314.645 17.2244H314.866L317.474 14.4545H319L316.026 17.608H315.825L314.653 18.7798ZM313.482 21V12.2727H314.756V21H313.482ZM317.615 21L315.271 17.8892L316.149 16.9986L319.179 21H317.615ZM320.161 21V14.4545H321.435V21H320.161ZM320.805 13.4446C320.583 13.4446 320.393 13.3707 320.234 13.223C320.077 13.0724 319.999 12.8935 319.999 12.6861C319.999 12.4759 320.077 12.2969 320.234 12.1491C320.393 11.9986 320.583 11.9233 320.805 11.9233C321.026 11.9233 321.215 11.9986 321.371 12.1491C321.531 12.2969 321.61 12.4759 321.61 12.6861C321.61 12.8935 321.531 13.0724 321.371 13.223C321.215 13.3707 321.026 13.4446 320.805 13.4446ZM325.971 21.1321C325.326 21.1321 324.77 20.9943 324.304 20.7188C323.841 20.4403 323.483 20.0497 323.23 19.5469C322.98 19.0412 322.855 18.4489 322.855 17.7699C322.855 17.0994 322.98 16.5085 323.23 15.9972C323.483 15.4858 323.836 15.0866 324.287 14.7997C324.742 14.5128 325.273 14.3693 325.881 14.3693C326.25 14.3693 326.608 14.4304 326.955 14.5526C327.301 14.6747 327.613 14.8665 327.888 15.1278C328.164 15.3892 328.381 15.7287 328.54 16.1463C328.699 16.5611 328.779 17.0653 328.779 17.6591V18.1108H323.576V17.1562H327.53C327.53 16.821 327.462 16.5241 327.326 16.2656C327.189 16.0043 326.998 15.7983 326.75 15.6477C326.506 15.4972 326.219 15.4219 325.89 15.4219C325.532 15.4219 325.219 15.5099 324.952 15.6861C324.688 15.8594 324.483 16.0866 324.338 16.3679C324.196 16.6463 324.125 16.9489 324.125 17.2756V18.0213C324.125 18.4588 324.202 18.831 324.355 19.1378C324.512 19.4446 324.729 19.679 325.007 19.8409C325.286 20 325.611 20.0795 325.983 20.0795C326.225 20.0795 326.445 20.0455 326.644 19.9773C326.843 19.9062 327.015 19.8011 327.159 19.6619C327.304 19.5227 327.415 19.3509 327.492 19.1463L328.698 19.3636C328.601 19.7187 328.428 20.0298 328.178 20.2969C327.931 20.5611 327.62 20.767 327.245 20.9148C326.873 21.0597 326.448 21.1321 325.971 21.1321ZM331.467 17.1136V21H330.192V14.4545H331.415V15.5199H331.496C331.647 15.1733 331.883 14.8949 332.204 14.6847C332.528 14.4744 332.935 14.3693 333.427 14.3693C333.873 14.3693 334.263 14.4631 334.599 14.6506C334.934 14.8352 335.194 15.1108 335.379 15.4773C335.563 15.8437 335.656 16.2969 335.656 16.8366V21H334.381V16.9901C334.381 16.5156 334.258 16.1449 334.011 15.8778C333.763 15.608 333.424 15.473 332.992 15.473C332.697 15.473 332.434 15.5369 332.204 15.6648C331.977 15.7926 331.796 15.9801 331.663 16.2273C331.532 16.4716 331.467 16.767 331.467 17.1136ZM338.204 21.081C337.971 21.081 337.771 20.9986 337.603 20.8338C337.435 20.6662 337.352 20.4645 337.352 20.2287C337.352 19.9957 337.435 19.7969 337.603 19.6321C337.771 19.4645 337.971 19.3807 338.204 19.3807C338.437 19.3807 338.637 19.4645 338.805 19.6321C338.972 19.7969 339.056 19.9957 339.056 20.2287C339.056 20.3849 339.016 20.5284 338.937 20.6591C338.86 20.7869 338.758 20.8892 338.63 20.9659C338.502 21.0426 338.36 21.081 338.204 21.081ZM340.763 21V14.4545H342.037V21H340.763ZM341.406 13.4446C341.185 13.4446 340.994 13.3707 340.835 13.223C340.679 13.0724 340.601 12.8935 340.601 12.6861C340.601 12.4759 340.679 12.2969 340.835 12.1491C340.994 11.9986 341.185 11.9233 341.406 11.9233C341.628 11.9233 341.817 11.9986 341.973 12.1491C342.132 12.2969 342.212 12.4759 342.212 12.6861C342.212 12.8935 342.132 13.0724 341.973 13.223C341.817 13.3707 341.628 13.4446 341.406 13.4446ZM348.656 16.0526L347.501 16.2571C347.453 16.1094 347.376 15.9687 347.271 15.8352C347.169 15.7017 347.029 15.5923 346.853 15.5071C346.677 15.4219 346.457 15.3793 346.193 15.3793C345.832 15.3793 345.531 15.4602 345.289 15.6222C345.048 15.7812 344.927 15.9872 344.927 16.2401C344.927 16.4588 345.008 16.6349 345.17 16.7685C345.332 16.902 345.593 17.0114 345.954 17.0966L346.994 17.3352C347.596 17.4744 348.045 17.6889 348.341 17.9787C348.636 18.2685 348.784 18.6449 348.784 19.108C348.784 19.5 348.67 19.8494 348.443 20.1562C348.218 20.4602 347.904 20.6989 347.501 20.8722C347.1 21.0455 346.636 21.1321 346.108 21.1321C345.375 21.1321 344.777 20.9759 344.314 20.6634C343.85 20.348 343.566 19.9006 343.461 19.321L344.693 19.1335C344.77 19.4545 344.927 19.6974 345.166 19.8622C345.404 20.0241 345.716 20.1051 346.099 20.1051C346.517 20.1051 346.85 20.0185 347.1 19.8452C347.35 19.669 347.475 19.4545 347.475 19.2017C347.475 18.9972 347.399 18.8253 347.245 18.6861C347.095 18.5469 346.863 18.4418 346.551 18.3707L345.443 18.1278C344.832 17.9886 344.38 17.767 344.088 17.4631C343.798 17.1591 343.653 16.7741 343.653 16.3082C343.653 15.9219 343.761 15.5838 343.977 15.294C344.193 15.0043 344.491 14.7784 344.872 14.6165C345.252 14.4517 345.689 14.3693 346.18 14.3693C346.887 14.3693 347.444 14.5227 347.85 14.8295C348.257 15.1335 348.525 15.5412 348.656 16.0526ZM354.041 16.7599V17.8636H350.172V16.7599H354.041ZM357.644 21.1449C357.229 21.1449 356.854 21.0682 356.519 20.9148C356.184 20.7585 355.918 20.5327 355.722 20.2372C355.529 19.9418 355.433 19.5795 355.433 19.1506C355.433 18.7812 355.504 18.4773 355.646 18.2386C355.788 18 355.979 17.8111 356.221 17.6719C356.462 17.5327 356.732 17.4276 357.031 17.3565C357.329 17.2855 357.633 17.2315 357.942 17.1946C358.335 17.1491 358.653 17.1122 358.897 17.0838C359.141 17.0526 359.319 17.0028 359.43 16.9347C359.54 16.8665 359.596 16.7557 359.596 16.6023V16.5724C359.596 16.2003 359.491 15.9119 359.281 15.7074C359.073 15.5028 358.763 15.4006 358.352 15.4006C357.923 15.4006 357.585 15.4957 357.337 15.6861C357.093 15.8736 356.924 16.0824 356.83 16.3125L355.633 16.0398C355.775 15.642 355.982 15.321 356.255 15.0767C356.531 14.8295 356.847 14.6506 357.205 14.5398C357.563 14.4261 357.94 14.3693 358.335 14.3693C358.596 14.3693 358.873 14.4006 359.165 14.4631C359.461 14.5227 359.737 14.6335 359.992 14.7955C360.251 14.9574 360.462 15.1889 360.627 15.4901C360.792 15.7884 360.874 16.1761 360.874 16.6534V21H359.63V20.1051H359.579C359.496 20.2699 359.373 20.4318 359.208 20.5909C359.043 20.75 358.832 20.8821 358.573 20.9872C358.315 21.0923 358.005 21.1449 357.644 21.1449ZM357.921 20.1222C358.273 20.1222 358.575 20.0526 358.825 19.9134C359.077 19.7741 359.269 19.5923 359.4 19.3679C359.533 19.1406 359.6 18.8977 359.6 18.6392V17.7955C359.555 17.8409 359.467 17.8835 359.336 17.9233C359.208 17.9602 359.062 17.9929 358.897 18.0213C358.732 18.0469 358.572 18.071 358.415 18.0938C358.259 18.1136 358.129 18.1307 358.023 18.1449C357.776 18.1761 357.55 18.2287 357.346 18.3026C357.144 18.3764 356.982 18.483 356.86 18.6222C356.741 18.7585 356.681 18.9403 356.681 19.1676C356.681 19.483 356.798 19.7216 357.031 19.8835C357.263 20.0426 357.56 20.1222 357.921 20.1222ZM363.411 21.081C363.178 21.081 362.978 20.9986 362.81 20.8338C362.642 20.6662 362.559 20.4645 362.559 20.2287C362.559 19.9957 362.642 19.7969 362.81 19.6321C362.978 19.4645 363.178 19.3807 363.411 19.3807C363.644 19.3807 363.844 19.4645 364.012 19.6321C364.179 19.7969 364.263 19.9957 364.263 20.2287C364.263 20.3849 364.223 20.5284 364.144 20.6591C364.067 20.7869 363.965 20.8892 363.837 20.9659C363.709 21.0426 363.567 21.081 363.411 21.081ZM368.42 21.1278C367.892 21.1278 367.42 20.9929 367.005 20.723C366.593 20.4503 366.27 20.0625 366.034 19.5597C365.801 19.054 365.684 18.4474 365.684 17.7401C365.684 17.0327 365.802 16.4276 366.038 15.9247C366.277 15.4219 366.603 15.0369 367.018 14.7699C367.433 14.5028 367.903 14.3693 368.429 14.3693C368.835 14.3693 369.162 14.4375 369.409 14.5739C369.659 14.7074 369.852 14.8636 369.988 15.0426C370.127 15.2216 370.235 15.3793 370.312 15.5156H370.389V12.2727H371.663V21H370.419V19.9815H370.312C370.235 20.1207 370.125 20.2798 369.98 20.4588C369.838 20.6378 369.642 20.794 369.392 20.9276C369.142 21.0611 368.818 21.1278 368.42 21.1278ZM368.701 20.0412C369.068 20.0412 369.377 19.9446 369.63 19.7514C369.886 19.5554 370.079 19.2841 370.21 18.9375C370.343 18.5909 370.41 18.1875 370.41 17.7273C370.41 17.2727 370.345 16.875 370.214 16.5341C370.083 16.1932 369.892 15.9276 369.639 15.7372C369.386 15.5469 369.074 15.4517 368.701 15.4517C368.318 15.4517 367.998 15.5511 367.743 15.75C367.487 15.9489 367.294 16.2202 367.163 16.5639C367.035 16.9077 366.971 17.2955 366.971 17.7273C366.971 18.1648 367.037 18.5582 367.167 18.9077C367.298 19.2571 367.491 19.5341 367.747 19.7386C368.005 19.9403 368.324 20.0412 368.701 20.0412ZM376.303 21.1321C375.658 21.1321 375.102 20.9943 374.636 20.7188C374.173 20.4403 373.815 20.0497 373.562 19.5469C373.312 19.0412 373.188 18.4489 373.188 17.7699C373.188 17.0994 373.312 16.5085 373.562 15.9972C373.815 15.4858 374.168 15.0866 374.619 14.7997C375.074 14.5128 375.605 14.3693 376.213 14.3693C376.582 14.3693 376.94 14.4304 377.287 14.5526C377.634 14.6747 377.945 14.8665 378.22 15.1278C378.496 15.3892 378.713 15.7287 378.872 16.1463C379.031 16.5611 379.111 17.0653 379.111 17.6591V18.1108H373.908V17.1562H377.862C377.862 16.821 377.794 16.5241 377.658 16.2656C377.521 16.0043 377.33 15.7983 377.082 15.6477C376.838 15.4972 376.551 15.4219 376.222 15.4219C375.864 15.4219 375.551 15.5099 375.284 15.6861C375.02 15.8594 374.815 16.0866 374.67 16.3679C374.528 16.6463 374.457 16.9489 374.457 17.2756V18.0213C374.457 18.4588 374.534 18.831 374.688 19.1378C374.844 19.4446 375.061 19.679 375.339 19.8409C375.618 20 375.943 20.0795 376.315 20.0795C376.557 20.0795 376.777 20.0455 376.976 19.9773C377.175 19.9062 377.347 19.8011 377.491 19.6619C377.636 19.5227 377.747 19.3509 377.824 19.1463L379.03 19.3636C378.933 19.7187 378.76 20.0298 378.51 20.2969C378.263 20.5611 377.952 20.767 377.577 20.9148C377.205 21.0597 376.78 21.1321 376.303 21.1321ZM385.936 14.4545L383.563 21H382.199L379.821 14.4545H381.189L382.847 19.4915H382.915L384.569 14.4545H385.936Z" fill="white"/>
</g>
<defs>
<clipPath id="clip0_1_2">
<rect width="644" height="32" fill="white" transform="translate(0 0.5)"/>
</clipPath>
</defs>
</svg>
