<svg id="a" viewBox="0 0 64 64" xmlns="http://www.w3.org/2000/svg" data-name="original"><path d="m36.981 33.634 11.851-14.601c1.153-1.288 1.788-2.915 1.788-4.583 0-1.754-.688-3.332-1.937-4.443-2.523-2.252-6.555-1.864-9.001.878l-12.985 15.961-1.102 1.23.034-13.585c0-1.464-.523-2.873-1.459-3.953l-.005-.005v-.002c-.217-.269-.479-.531-.758-.757l-.002-.003-.006-.005c-1.238-1.052-2.885-1.587-4.525-1.361h-.014l-.003.002c-.165.02-.321.041-.487.072h-.009c-.015.004-.028.011-.043.014-1.186.231-2.272.807-3.138 1.672-1.159 1.149-1.798 2.686-1.798 4.326v35.019c0 1.636.638 3.175 1.796 4.334 1.159 1.158 2.698 1.796 4.333 1.796 3.375 0 6.12-2.75 6.12-6.131l-.017-9.255 14.231 13.576c1.134 1.03 2.579 1.587 4.099 1.587.104 0 .208-.002.313-.008 1.636-.082 3.14-.798 4.234-2.014 1.025-1.129 1.59-2.587 1.59-4.105 0-1.721-.734-3.375-1.996-4.523l-11.103-11.132zm-11.389-4.055 1.866-2.084 12.985-15.962c2.066-2.312 5.464-2.663 7.575-.78 1.034.92 1.603 2.233 1.603 3.697 0 1.421-.544 2.812-1.548 3.935l-12.575 15.492c-1.884 2.116-3.425 3.649-6.008 4.113-.048-.015-.096-.03-.149-.03-.231 0-.472-.028-.751-.088-1.61-.358-2.81-1.694-2.988-3.336l-.009-4.635v-.322zm-6.031 24.881c-2.741 0-4.97-2.229-4.97-4.97v-16.99c1.767 3.668 5.316 6.109 9.705 6.497l.15.143.085 10.351c0 2.74-2.229 4.97-4.97 4.97zm4.947-16.46c-.014 0-.029.008-.044.01-5.073-.416-8.939-3.809-9.873-8.675v-15.005c0-2.35 1.669-4.397 3.968-4.869.147-.026.285-.046.426-.063 1.376-.15 2.721.267 3.782 1.142.231.187.445.401.632.633.73.881 1.133 2.003 1.133 3.158v15.13c0 .083.025.156.061.223v.218l-.01 4.228c0 .158.01.306.023.514.148 1.383.878 2.598 1.957 3.386l-2.053-.029zm23.242 14.725c-.917 1.019-2.175 1.617-3.542 1.686-1.375.07-2.677-.4-3.681-1.312l-14.756-14.081.87.012c.151 0 .366.005.613.011.41.01.798.018 1.145.018.499 0 .913-.017 1.186-.065 2.942-.499 4.686-2.234 6.674-4.468l.089-.11 11.047 11.075c1.072.975 1.687 2.36 1.687 3.8 0 1.27-.472 2.489-1.332 3.435z" fill="#000000" style="fill: rgb(255, 255, 255);"></path></svg>