<svg width="84" height="84" viewBox="0 0 84 84" fill="none" xmlns="http://www.w3.org/2000/svg">
<g clip-path="url(#clip0_1_14)">
<path d="M64.3125 0H19.6875C8.81439 0 0 8.81439 0 19.6875V64.3125C0 75.1856 8.81439 84 19.6875 84H64.3125C75.1856 84 84 75.1856 84 64.3125V19.6875C84 8.81439 75.1856 0 64.3125 0Z" fill="#F4F2ED"/>
<path d="M33.8736 12.8924C42.1456 10.7711 51.2879 12.0072 58.5831 16.5097C67.7711 22.0042 73.7694 32.3978 73.9219 43.0968C74.2578 53.9023 68.6258 64.6166 59.5753 70.4927C49.5021 77.269 35.5677 77.5287 25.2807 71.0879C14.7956 64.8302 8.67527 52.2083 10.2475 40.0899C11.5139 27.2847 21.4043 15.9906 33.8736 12.8924Z" fill="#010101"/>
<path d="M32.6067 18.1276C48.2354 11.8698 67.405 23.4235 69.0226 40.1817C71.5411 55.2608 59.0259 70.5842 43.7481 71.0269C29.2184 72.4769 15.1771 60.1598 14.7651 45.5694C13.6815 33.7563 21.4653 22.0348 32.6067 18.1276Z" fill="white"/>
<path d="M34.1787 42.1964C41.1843 36.4729 48.037 30.551 55.1951 24.9955C51.4404 30.7648 47.5792 36.4576 43.8245 42.2267C40.6041 42.2421 37.384 42.2423 34.1787 42.1964ZM40.1006 45.3861C43.3361 45.3861 46.5565 45.3861 49.7769 45.4319C42.7257 51.1247 35.9035 57.0922 28.73 62.6327C32.4847 56.8633 36.346 51.1554 40.1006 45.3861Z" fill="#010101"/>
</g>
<defs>
<clipPath id="clip0_1_14">
<rect width="84" height="84" fill="white"/>
</clipPath>
</defs>
</svg>
