<svg width="101" height="101" viewBox="0 0 101 101" fill="none" xmlns="http://www.w3.org/2000/svg">
<path d="M77.3281 0H23.6719C10.5983 0 0 10.5983 0 23.6719V77.3281C0 90.4017 10.5983 101 23.6719 101H77.3281C90.4017 101 101 90.4017 101 77.3281V23.6719C101 10.5983 90.4017 0 77.3281 0Z" fill="#A24689"/>
<path d="M81.6714 64.5293C79.6699 64.5293 77.7134 63.9339 76.0492 62.8185C74.385 61.703 73.0879 60.1175 72.322 58.2626C71.5561 56.4076 71.3557 54.3665 71.7461 52.3973C72.1366 50.4281 73.1004 48.6193 74.5157 47.1996C75.9309 45.7799 77.7341 44.813 79.6971 44.4213C81.6602 44.0296 83.6949 44.2307 85.544 44.999C87.3932 45.7673 88.9736 47.0685 90.0856 48.7379C91.1976 50.4073 91.7911 52.37 91.7911 54.3778C91.7911 57.0701 90.7249 59.6522 88.8271 61.556C86.9293 63.4598 84.3553 64.5293 81.6714 64.5293ZM81.6714 60.3333C82.8456 60.3333 83.9934 59.984 84.9697 59.3296C85.9461 58.6752 86.707 57.7451 87.1564 56.6569C87.6057 55.5686 87.7233 54.3712 87.4942 53.2159C87.2651 52.0606 86.6997 50.9995 85.8694 50.1666C85.0391 49.3337 83.9813 48.7665 82.8296 48.5367C81.678 48.3069 80.4843 48.4248 79.3994 48.8756C78.3146 49.3263 77.3874 50.0897 76.735 51.069C76.0827 52.0484 75.7345 53.1999 75.7345 54.3778C75.7345 55.9573 76.36 57.4721 77.4734 58.589C78.5868 59.7059 80.0968 60.3333 81.6714 60.3333ZM60.4875 64.5293C58.486 64.5293 56.5295 63.9339 54.8653 62.8185C53.2011 61.703 51.904 60.1175 51.1381 58.2626C50.3722 56.4076 50.1718 54.3665 50.5622 52.3973C50.9527 50.4281 51.9165 48.6193 53.3318 47.1996C54.747 45.7799 56.5502 44.813 58.5132 44.4213C60.4763 44.0296 62.511 44.2307 64.3601 44.999C66.2093 45.7673 67.7897 47.0685 68.9017 48.7379C70.0137 50.4073 70.6072 52.37 70.6072 54.3778C70.6072 57.0701 69.541 59.6522 67.6432 61.556C65.7454 63.4598 63.1714 64.5293 60.4875 64.5293ZM60.4875 60.3333C61.6617 60.3333 62.8095 59.984 63.7858 59.3296C64.7622 58.6752 65.5231 57.7451 65.9725 56.6569C66.4218 55.5686 66.5394 54.3712 66.3103 53.2159C66.0812 52.0606 65.5158 50.9995 64.6855 50.1666C63.8552 49.3337 62.7974 48.7665 61.6457 48.5367C60.4941 48.3069 59.3004 48.4248 58.2155 48.8756C57.1307 49.3263 56.2035 50.0897 55.5511 51.069C54.8988 52.0484 54.5506 53.1999 54.5506 54.3778C54.5506 55.9573 55.1761 57.4721 56.2895 58.589C57.4029 59.7059 58.9129 60.3333 60.4875 60.3333ZM49.4233 54.2424C49.4233 59.9137 44.8897 64.5293 39.3036 64.5293C33.7175 64.5293 29.1839 59.9273 29.1839 54.256C29.1839 48.5846 33.2992 44.2263 39.3036 44.2263C41.5164 44.2263 43.5674 44.7 45.2405 45.9317V40.0438C45.2405 38.9204 46.2255 38 47.3319 38C48.4383 38 49.4233 38.9204 49.4233 40.0438V54.2424ZM39.3036 60.3333C40.4778 60.3333 41.6256 59.984 42.602 59.3296C43.5783 58.6752 44.3392 57.7451 44.7886 56.6569C45.2379 55.5686 45.3555 54.3712 45.1264 53.2159C44.8973 52.0606 44.3319 50.9995 43.5016 50.1666C42.6713 49.3337 41.6135 48.7665 40.4618 48.5367C39.3102 48.3069 38.1165 48.4248 37.0316 48.8756C35.9468 49.3263 35.0196 50.0897 34.3673 51.069C33.7149 52.0484 33.3667 53.1999 33.3667 54.3778C33.3667 55.9573 33.9922 57.4721 35.1056 58.589C36.219 59.7059 37.729 60.3333 39.3036 60.3333Z" fill="white"/>
<path d="M18.1197 64.5293C16.1182 64.5293 14.1617 63.9339 12.4975 62.8185C10.8333 61.703 9.53626 60.1175 8.77032 58.2626C8.00438 56.4076 7.80398 54.3665 8.19445 52.3973C8.58492 50.4281 9.54873 48.6193 10.964 47.1996C12.3793 45.7799 14.1824 44.813 16.1454 44.4213C18.1085 44.0296 20.1432 44.2307 21.9923 44.999C23.8415 45.7673 25.422 47.0685 26.5339 48.7379C27.6459 50.4073 28.2394 52.37 28.2394 54.3778C28.2394 57.0701 27.1732 59.6522 25.2754 61.556C23.3776 63.4598 20.8036 64.5293 18.1197 64.5293ZM18.1197 60.3333C19.2939 60.3333 20.4417 59.984 21.4181 59.3296C22.3944 58.6752 23.1553 57.7451 23.6047 56.6569C24.054 55.5686 24.1716 54.3712 23.9425 53.2159C23.7134 52.0606 23.148 50.9995 22.3177 50.1666C21.4874 49.3337 20.4296 48.7665 19.2779 48.5367C18.1263 48.3069 16.9326 48.4248 15.8478 48.8756C14.7629 49.3263 13.8357 50.0897 13.1834 51.069C12.531 52.0484 12.1828 53.1999 12.1828 54.3778C12.1828 55.9573 12.8083 57.4721 13.9217 58.589C15.0351 59.7059 16.5451 60.3333 18.1197 60.3333Z" fill="white"/>
</svg>
