<svg width="101" height="101" viewBox="0 0 101 101" fill="none" xmlns="http://www.w3.org/2000/svg">
<g clip-path="url(#clip0_1_64)">
<path d="M77.3281 0H23.6719C10.5983 0 0 10.5983 0 23.6719V77.3281C0 90.4017 10.5983 101 23.6719 101H77.3281C90.4017 101 101 90.4017 101 77.3281V23.6719C101 10.5983 90.4017 0 77.3281 0Z" fill="#F4F2ED"/>
<g clip-path="url(#clip1_1_64)">
<path d="M47.1365 13.6472L12.6497 48.105C12.2087 48.5443 11.8588 49.0664 11.62 49.6413C11.3812 50.2162 11.2583 50.8325 11.2583 51.455C11.2583 52.0775 11.3812 52.6938 11.62 53.2687C11.8588 53.8436 12.2087 54.3657 12.6497 54.805L47.1365 89.2628C47.5764 89.703 48.0988 90.0523 48.6737 90.2906C49.2487 90.5289 49.865 90.6515 50.4874 90.6515C51.1097 90.6515 51.726 90.5289 52.301 90.2906C52.876 90.0523 53.3983 89.703 53.8383 89.2628L68.2991 74.8142C68.6938 74.4198 69.0068 73.9514 69.2204 73.436C69.4339 72.9205 69.5439 72.368 69.5439 71.8101C69.5439 71.2521 69.4339 70.6996 69.2204 70.1842C69.0068 69.6687 68.6938 69.2004 68.2991 68.806C67.5015 68.009 66.4201 67.5613 65.2925 67.5613C64.165 67.5613 63.0836 68.009 62.2859 68.806L51.3249 79.7578C50.8625 80.2202 50.1609 80.2202 49.701 79.7578L22.1596 52.2422C21.6991 51.7799 21.6991 51.0796 22.1596 50.6197L49.701 23.1016C50.1609 22.6418 50.8619 22.6418 51.3242 23.1016L62.2859 34.0535C63.0836 34.8505 64.165 35.2981 65.2925 35.2981C66.4201 35.2981 67.5015 34.8505 68.2991 34.0535C68.6938 33.659 69.0068 33.1907 69.2204 32.6753C69.4339 32.1598 69.5439 31.6073 69.5439 31.0494C69.5439 30.4914 69.4339 29.9389 69.2204 29.4235C69.0068 28.908 68.6938 28.4397 68.2991 28.0452L53.8407 13.5992C51.9789 11.7879 48.9834 11.8027 47.1365 13.6472Z" fill="url(#paint0_linear_1_64)"/>
<path d="M47.1365 13.6472L12.6497 48.105C12.2087 48.5443 11.8588 49.0664 11.62 49.6413C11.3812 50.2162 11.2583 50.8325 11.2583 51.455C11.2583 52.0775 11.3812 52.6938 11.62 53.2687C11.8588 53.8436 12.2087 54.3657 12.6497 54.805L47.1365 89.2628C47.5764 89.703 48.0988 90.0523 48.6737 90.2906C49.2487 90.5289 49.865 90.6515 50.4874 90.6515C51.1097 90.6515 51.726 90.5289 52.301 90.2906C52.876 90.0523 53.3983 89.703 53.8383 89.2628L68.2991 74.8142C68.6938 74.4198 69.0068 73.9514 69.2204 73.436C69.4339 72.9205 69.5439 72.368 69.5439 71.8101C69.5439 71.2521 69.4339 70.6996 69.2204 70.1842C69.0068 69.6687 68.6938 69.2004 68.2991 68.806C67.5015 68.009 66.4201 67.5613 65.2925 67.5613C64.165 67.5613 63.0836 68.009 62.2859 68.806L51.3249 79.7578C50.8625 80.2202 50.1609 80.2202 49.701 79.7578L22.1596 52.2422C21.6991 51.7799 21.6991 51.0796 22.1596 50.6197L49.701 23.1016C50.8502 22.1116 52.7237 20.1055 55.4781 19.6364C57.5236 19.2875 59.76 20.0548 62.1873 21.9383C60.5647 20.3158 57.7825 17.536 53.8407 13.5992C51.9789 11.7879 48.9834 11.8027 47.1365 13.6472Z" fill="url(#paint1_linear_1_64)"/>
<path d="M71.6374 65.6002C72.435 66.397 73.5163 66.8446 74.6437 66.8446C75.7711 66.8446 76.8524 66.397 77.65 65.6002L88.3158 54.9443C88.7566 54.5052 89.1063 53.9833 89.3449 53.4087C89.5836 52.8341 89.7064 52.2181 89.7064 51.5959C89.7064 50.9737 89.5836 50.3576 89.3449 49.783C89.1063 49.2084 88.7566 48.6866 88.3158 48.2474L77.5563 37.5336C76.7567 36.7376 75.6739 36.2913 74.5457 36.2927C73.4174 36.2941 72.3358 36.743 71.5382 37.5409C71.1431 37.9351 70.8297 38.4034 70.6158 38.9189C70.402 39.4344 70.2919 39.987 70.2919 40.5451C70.2919 41.1032 70.402 41.6558 70.6158 42.1713C70.8297 42.6868 71.1431 43.155 71.5382 43.5492L78.8065 50.8095C78.9154 50.9145 79.002 51.0404 79.0612 51.1797C79.1204 51.3189 79.1509 51.4686 79.1509 51.6199C79.1509 51.7712 79.1204 51.9209 79.0612 52.0602C79.002 52.1994 78.9154 52.3253 78.8065 52.4303L71.6368 59.5944C71.2418 59.9884 70.9284 60.4565 70.7146 60.9718C70.5008 61.487 70.3908 62.0395 70.3908 62.5973C70.3908 63.1552 70.5008 63.7076 70.7146 64.2229C70.9284 64.7382 71.2424 65.2062 71.6374 65.6002Z" fill="url(#paint2_linear_1_64)"/>
<path fill-rule="evenodd" clip-rule="evenodd" d="M59.9723 51.6282C59.9723 46.4892 55.8036 42.323 50.6597 42.323C45.5182 42.323 41.3477 46.4892 41.3477 51.6282C41.3477 56.7648 45.5182 60.931 50.6597 60.931C55.8036 60.931 59.9723 56.7648 59.9723 51.6282Z" fill="url(#paint3_linear_1_64)"/>
</g>
</g>
<defs>
<linearGradient id="paint0_linear_1_64" x1="47.4522" y1="12.2503" x2="80.2355" y2="32.2871" gradientUnits="userSpaceOnUse">
<stop stop-color="#4285EB"/>
<stop offset="1" stop-color="#2EC7FF"/>
</linearGradient>
<linearGradient id="paint1_linear_1_64" x1="51.8235" y1="12.2503" x2="35.6376" y2="95.9418" gradientUnits="userSpaceOnUse">
<stop stop-color="#29CDFF"/>
<stop offset="0.379" stop-color="#148EFF"/>
<stop offset="1" stop-color="#0A60FF"/>
</linearGradient>
<linearGradient id="paint2_linear_1_64" x1="83.8229" y1="32.3189" x2="62.7517" y2="65.2629" gradientUnits="userSpaceOnUse">
<stop stop-color="#FA816E"/>
<stop offset="0.415" stop-color="#F74A5C"/>
<stop offset="1" stop-color="#F51D2C"/>
</linearGradient>
<linearGradient id="paint3_linear_1_64" x1="54.031" y1="35.6807" x2="47.0215" y2="63.7069" gradientUnits="userSpaceOnUse">
<stop stop-color="#FA8E7D"/>
<stop offset="0.513" stop-color="#F74A5C"/>
<stop offset="1" stop-color="#F51D2C"/>
</linearGradient>
<clipPath id="clip0_1_64">
<rect width="101" height="101" fill="white"/>
</clipPath>
<clipPath id="clip1_1_64">
<rect width="78.91" height="78.91" fill="white" transform="translate(11 12)"/>
</clipPath>
</defs>
</svg>
